# https://github.com/mikedh/trimesh

o rod_Link.STL
v -0.28204703 13.80000114 3.65719366
v 0.49531350 13.80000114 3.71714473
v -0.28834814 9.30000114 3.73889732
v 1.25732756 9.30000114 3.53293467
v -1.05940747 13.80000114 3.59724283
v -1.78416574 9.30000114 3.29837108
v -1.74517751 13.80000114 3.22629380
v -2.43094730 13.80000114 2.85534501
v -2.97148490 9.30000114 2.28752637
v -2.90655088 13.80000114 2.23753834
v -3.38215423 13.80000114 1.61973202
v -3.64500737 9.30000114 0.88114750
v -3.53293467 13.80000114 1.25732756
v -3.68827486 9.30000114 -0.67758977
v -3.74855614 13.80000114 0.10405266
v -3.60467672 13.80000114 0.87360710
v -3.09380627 9.30000114 -2.11916566
v -3.46679854 13.80000114 -1.42961836
v -3.60767722 13.80000114 -0.66278285
v -1.96439028 9.30000114 -3.19431853
v -2.58559966 13.80000114 -2.71609521
v -3.02619934 13.80000114 -2.07285666
v -0.49531350 9.30000114 -3.71714473
v -1.25732756 13.80000114 -3.53293467
v -1.92146361 13.80000114 -3.12451482
v 1.05940747 9.30000114 -3.59724283
v 0.28834814 13.80000114 -3.73889732
v -0.48448965 13.80000114 -3.63591623
v 2.43094730 9.30000114 -2.85534501
v 1.78416574 13.80000114 -3.29837108
v 1.03625703 13.80000114 -3.51863456
v 3.38215423 9.30000114 -1.61973202
v 2.97148490 13.80000114 -2.28752637
v 2.37782526 13.80000114 -2.79294896
v 3.74855614 9.30000114 -0.10405266
v 3.64500737 13.80000114 -0.88114750
v 3.30824614 13.80000114 -1.58433700
v 3.46679854 9.30000114 1.42961836
v 3.68827486 13.80000114 0.67758977
v 3.66664124 13.80000114 -0.10177893
v 2.58559966 9.30000114 2.71609521
v 3.09380627 13.80000114 2.11916566
v 3.39104080 13.80000114 1.39837754
v 1.22985184 13.80000114 3.45573163
v 1.96439028 13.80000114 3.19431853
v 2.52909827 13.80000114 2.65674210
v -0.28834814 -9.30000019 3.73889732
v 1.25732756 -9.30000019 3.53293467
v 0.88114750 -13.80000019 3.64500737
v -0.29005185 -13.80000019 3.67751765
v -0.67758977 -13.80000019 3.68827486
v -1.78416574 -9.30000019 3.29837108
v -1.76075685 -13.80000019 3.24160480
v -2.11916566 -13.80000019 3.09380627
v -2.97148490 -9.30000019 2.28752637
v -2.92701077 -13.80000019 2.24518895
v -3.19431853 -13.80000019 1.96439028
v -3.64500737 -9.30000019 0.88114750
v -3.58715820 -13.80000019 0.86055970
v -3.71714473 -13.80000019 0.49531350
v -3.68827486 -9.30000019 -0.67758977
v -3.62705302 -13.80000019 -0.67286825
v -3.59724283 -13.80000019 -1.05940747
v -3.09380627 -9.30000019 -2.11916566
v -3.03979778 -13.80000019 -2.08995128
v -2.85534501 -13.80000019 -2.43094730
v -1.96439028 -9.30000019 -3.19431853
v -1.92693365 -13.80000019 -3.14566255
v -1.61973202 -13.80000019 -3.38215423
v -0.49531350 -9.30000019 -3.71714473
v -0.48088530 -13.80000019 -3.65746021
v -0.10405266 -13.80000019 -3.74855614
v 1.05940747 -9.30000019 -3.59724283
v 1.04831254 -13.80000019 -3.53684998
v 1.42961836 -13.80000019 -3.46679854
v 2.43094730 -9.30000019 -2.85534501
v 2.39624763 -13.80000019 -2.80468607
v 2.71609521 -13.80000019 -2.58559966
v 3.38215423 -9.30000019 -1.61973202
v 3.32984972 -13.80000019 -1.58756649
v 3.53293467 -13.80000019 -1.25732756
v 3.74855614 -9.30000019 -0.10405266
v 3.68769050 -13.80000019 -0.09594221
v 3.73889732 -13.80000019 0.28834814
v 3.46679854 -9.30000019 1.42961836
v 3.40789604 -13.80000019 1.41227114
v 3.29837108 -13.80000019 1.78416574
v 2.58559966 -9.30000019 2.71609521
v 2.53884554 -13.80000019 2.67629027
v 2.28752637 -13.80000019 2.97148490
v 1.23080552 -13.80000019 3.47755432
v 3.07824111 -14.30000019 -2.93034649
v 4.00399256 -14.30000019 -1.42497122
v 1.62023413 -14.30000019 -3.92903852
v -0.11792639 -14.30000019 -4.24836397
v -1.83569634 -14.30000019 -3.83310843
v -3.23605776 -14.30000019 -2.75507379
v -4.07687521 -14.30000019 -1.20066178
v -4.21276426 -14.30000019 0.56135529
v -3.62022758 -14.30000019 2.22630906
v -2.40172124 -14.30000019 3.50631380
v -0.76793516 -14.30000019 4.18004465
v 0.99863392 -14.30000019 4.13100863
v 2.59252977 -14.30000019 3.36768317
v 3.73815393 -14.30000019 2.02205467
v 4.23741722 -14.30000019 0.32679459
v 22.29551506 -14.30000019 53.67253494
v 23.58199310 -14.30000019 54.55373383
v 23.21984673 -13.80000019 54.89847946
v 22.54207802 -13.80000019 54.43422699
v 22.10490036 -13.80000019 54.13476944
v 20.76184464 -14.30000019 53.39077377
v 21.20143509 -13.80000019 53.96879578
v 20.77571869 -13.80000019 53.89058304
v 19.24616623 -14.30000019 53.75717926
v 19.78871727 -13.80000019 54.12918472
v 19.46212959 -13.80000019 54.20812988
v 18.58100891 -13.80000019 54.88644028
v 18.01055336 -14.30000019 54.70838547
v 18.39126396 -13.80000019 55.03250885
v 17.81646919 -13.80000019 56.09513092
v 17.26865387 -14.30000019 56.07992554
v 17.74828720 -13.80000019 56.22117615
v 17.64803314 -13.80000019 57.52111053
v 17.14875221 -14.30000019 57.63464355
v 17.64437103 -13.80000019 57.56860352
v 17.67157936 -14.30000019 59.10372543
v 18.09748840 -13.80000019 58.84180069
v 18.13033104 -13.80000019 58.87630081
v 18.74673462 -14.30000019 60.23314285
v 19.02928734 -13.80000019 59.82062912
v 19.16176987 -13.80000019 59.87525940
v 20.18830681 -14.30000019 60.82760239
v 20.27865219 -13.80000019 60.33583450
v 20.51801682 -13.80000019 60.32919312
v 21.74704552 -14.30000019 60.78433990
v 21.62956047 -13.80000019 60.29834366
v 21.93259621 -13.80000019 60.15321350
v 23.15342331 -14.30000019 60.11081314
v 22.84842110 -13.80000019 59.71461868
v 23.12901115 -13.80000019 59.38504410
v 24.16427040 -14.30000019 58.92350006
v 23.72448540 -13.80000019 58.68560791
v 23.87418747 -13.80000019 58.17729187
v 24.60479546 -14.30000019 57.42768097
v 24.10627556 -13.80000019 57.38923264
v 24.02344704 -13.80000019 56.76763153
v 24.39883232 -14.30000019 55.88200378
v 23.92777443 -13.80000019 56.04964828
v 23.54834175 -13.80000019 55.43265152
v 16.02085304 -13.80000019 52.47290421
v 16.49191093 -14.30000019 52.30526352
v 16.19050407 -13.80000019 53.63365936
v 16.68983650 -14.30000019 53.65947723
v 15.90205574 -13.80000019 54.77072906
v 16.35331535 -14.30000019 54.98606110
v -1.86205530 -13.80000019 5.70374870
v -1.70688391 -14.30000019 5.22843647
v -0.69990170 -13.80000019 6.40653229
v -0.35103798 -14.30000019 6.04835081
v 0.03326487 -13.80000019 7.54976082
v 0.50432271 -14.30000019 7.38211775
v -1.70688391 -9.30000019 5.22843647
v -1.86205530 -9.80000019 5.70374870
v -0.79158753 -9.30000019 5.68438387
v -1.07751536 -9.80000019 6.09456062
v -0.04713801 -9.30000019 6.38541889
v -0.72167289 -9.80000019 6.42965126
v -0.43941581 -9.80000019 6.69544792
v -0.16475879 -9.72825146 7.11593199
v 0.03326487 -9.53312397 7.54976082
v 0.42895657 -9.08649921 7.17034817
v 0.25841713 -9.23803329 6.80101347
v 0.23620979 -9.24253750 6.77080822
v -0.18147843 -9.74472618 7.07930231
v 0.10080410 -9.26999760 6.58663940
v -0.29298022 -9.76862049 6.91336918
v 0.00985943 -9.28844166 6.46294260
v -0.38320869 -9.78795528 6.77909422
v -1.86205530 9.80000019 5.70374870
v -1.70688391 9.30000114 5.22843647
v -1.07751536 9.80000019 6.09456062
v -0.79158753 9.30000114 5.68438387
v -0.72167289 9.80000019 6.42965126
v -0.04713801 9.30000114 6.38541889
v -0.43941581 9.80000019 6.69544792
v -0.16501471 9.73002243 7.11470413
v 0.21683277 9.25652313 6.73170090
v 0.23371710 9.24299145 6.76661587
v -0.14642452 9.72528172 7.14310789
v 0.32772207 9.16764164 6.96100712
v -0.06747441 9.64085388 7.32177925
v 0.36842173 9.13502121 7.04516840
v -0.00561683 9.57470417 7.46176863
v 0.39013371 9.11761665 7.09006643
v 0.42895657 9.08649921 7.17034817
v 0.03326487 9.53312397 7.54976082
v 0.03326487 13.80000114 7.54976082
v 0.50432271 14.30000019 7.38211775
v -0.69990170 13.80000114 6.40653229
v -0.35103798 14.30000019 6.04835081
v -1.86205530 13.80000114 5.70374870
v -1.70688391 14.30000019 5.22843647
v 0.32679459 14.30000019 -4.23741722
v -1.42497122 14.30000019 -4.00399256
v 2.02205467 14.30000019 -3.73815393
v 3.36768317 14.30000019 -2.59252977
v 4.13100863 14.30000019 -0.99863392
v 4.18004465 14.30000019 0.76793516
v 3.50631380 14.30000019 2.40172124
v 2.22630906 14.30000019 3.62022758
v 0.56135529 14.30000019 4.21276426
v -1.20066178 14.30000019 4.07687521
v -2.75507379 14.30000019 3.23605776
v -3.83310843 14.30000019 1.83569634
v -4.24836397 14.30000019 0.11792639
v -3.92903852 14.30000019 -1.62023413
v -2.93034649 14.30000019 -3.07824111
v 5.18163776 9.30000114 -1.84408045
v 4.27726984 9.30000114 -3.45759463
v 7.19336128 9.30000114 3.80861521
v -3.94000030 9.30000114 -3.83749938
v -2.44499707 9.30000114 -4.92666101
v -0.67346185 9.30000114 -5.45861244
v 1.17424238 9.30000114 -5.37318897
v 2.88913870 9.30000114 -4.68005085
v -3.34367132 9.30000114 4.36690521
v -4.60228539 9.30000114 3.01147223
v -5.34037685 9.30000114 1.31543863
v -5.47446442 9.30000114 -0.52937281
v -4.98938465 9.30000114 -2.31431150
v 7.44555044 9.09846115 4.51723433
v 0.21683343 9.25652504 6.73170090
v 7.52864933 9.03205013 4.75073147
v 0.59849614 8.70181084 7.64673281
v 7.65137243 8.66602516 5.09556961
v 0.62433833 8.64317226 7.71934700
v 7.77409649 8.30000114 5.44040775
v 0.74462849 8.06096745 8.05734730
v 7.79636240 8.05215740 5.50297260
v 0.75312883 8.01982498 8.08123207
v 7.86393595 7.30000067 5.69284773
v 0.79806691 7.30000067 8.20750237
v 7.86393595 -7.29999971 5.69284773
v 0.79806691 -7.29999971 8.20750237
v 0.75312883 -8.01982498 8.08123207
v 7.77409649 -8.30000019 5.44040775
v 0.69881552 -8.28270340 7.92861843
v 0.62433833 -8.64317322 7.71934700
v 7.52864933 -9.03205109 4.75073147
v 0.45917699 -9.01792812 7.25526381
v 7.19336128 -9.30000019 3.80861521
v 0.25841779 -9.23803425 6.80101347
v 5.18163776 -9.30000019 -1.84408045
v 4.27726984 -9.30000019 -3.45759463
v 2.88913870 -9.30000019 -4.68005085
v 1.17424238 -9.30000019 -5.37318897
v -0.67346185 -9.30000019 -5.45861244
v -2.44499707 -9.30000019 -4.92666101
v -3.94000030 -9.30000019 -3.83749938
v -4.98938465 -9.30000019 -2.31431150
v -5.47446442 -9.30000019 -0.52937281
v -5.34037685 -9.30000019 1.31543863
v -4.60228539 -9.30000019 3.01147223
v -3.34367132 -9.30000019 4.36690521
v 5.65269566 -9.80000019 -2.01172400
v 4.66611338 -9.80000019 -3.77192140
v 3.15178752 -9.80000019 -5.10550976
v 1.28099179 -9.80000019 -5.86166000
v -0.73468572 -9.80000019 -5.95485020
v -2.66726947 -9.80000019 -5.37453985
v -4.29818153 -9.80000019 -4.18636227
v -5.44296551 -9.80000019 -2.52470350
v -5.97214317 -9.80000019 -0.57749772
v -5.82586527 -9.80000019 1.43502390
v -5.02067518 -9.80000019 3.28524256
v -3.64764118 -9.80000019 4.76389647
v -3.64764118 -13.80000019 4.76389647
v -3.34367132 -14.30000019 4.36690521
v -5.02067518 -13.80000019 3.28524256
v -4.60228539 -14.30000019 3.01147223
v -5.82586527 -13.80000019 1.43502390
v -5.34037685 -14.30000019 1.31543863
v -5.97214317 -13.80000019 -0.57749772
v -5.47446442 -14.30000019 -0.52937281
v -5.44296551 -13.80000019 -2.52470350
v -4.98938465 -14.30000019 -2.31431150
v -4.29818153 -13.80000019 -4.18636227
v -3.94000030 -14.30000019 -3.83749938
v -2.66726947 -13.80000019 -5.37453985
v -2.44499707 -14.30000019 -4.92666101
v -0.73468572 -13.80000019 -5.95485020
v -0.67346185 -14.30000019 -5.45861244
v 1.28099179 -13.80000019 -5.86166000
v 1.17424238 -14.30000019 -5.37318897
v 3.15178752 -13.80000019 -5.10550976
v 2.88913870 -14.30000019 -4.68005085
v 4.66611338 -13.80000019 -3.77192140
v 4.27726984 -14.30000019 -3.45759463
v 5.65269566 -13.80000019 -2.01172400
v 5.18163776 -14.30000019 -1.84408045
v 25.57647705 -14.30000019 55.46289444
v 25.86531639 -14.30000019 57.21556091
v 25.52317810 -14.30000019 58.95860672
v 24.59323883 -14.30000019 60.47203827
v 23.19287109 -14.30000019 61.56484222
v 21.49881554 -14.30000019 62.09910965
v 19.72488213 -14.30000019 62.00740051
v 18.09495163 -14.30000019 61.30128479
v 16.81474686 -14.30000019 60.06989288
v 16.04583740 -14.30000019 58.46862411
v 15.88527298 -14.30000019 56.69959259
v 26.04753494 -13.80000019 55.29524994
v 26.36525917 -13.80000019 57.22318268
v 25.98890686 -13.80000019 59.14053345
v 24.96597290 -13.80000019 60.80530930
v 23.42556953 -13.80000019 62.00739670
v 21.56210709 -13.80000019 62.59508514
v 19.61077690 -13.80000019 62.49420547
v 17.81785583 -13.80000019 61.71747971
v 16.40963173 -13.80000019 60.36294556
v 15.56383228 -13.80000019 58.60155487
v 15.38720989 -13.80000019 56.65562057
v -3.64764118 9.80000019 4.76389647
v -5.02067518 9.80000019 3.28524256
v -5.82586527 9.80000019 1.43502390
v -5.97214317 9.80000019 -0.57749772
v -5.44296551 9.80000019 -2.52470350
v -4.29818153 9.80000019 -4.18636227
v -2.66726947 9.80000019 -5.37453985
v -0.73468572 9.80000019 -5.95485020
v 1.28099179 9.80000019 -5.86166000
v 3.15178752 9.80000019 -5.10550976
v 4.66611338 9.80000019 -3.77192140
v 5.65269566 9.80000019 -2.01172400
v 5.18163776 14.30000019 -1.84408045
v 5.65269566 13.80000114 -2.01172400
v 4.66611338 13.80000114 -3.77192140
v 4.27726984 14.30000019 -3.45759463
v 3.15178752 13.80000114 -5.10550976
v 2.88913870 14.30000019 -4.68005085
v 1.28099179 13.80000114 -5.86166000
v 1.17424238 14.30000019 -5.37318897
v -0.73468572 13.80000114 -5.95485020
v -0.67346185 14.30000019 -5.45861244
v -2.66726947 13.80000114 -5.37453985
v -2.44499707 14.30000019 -4.92666101
v -4.29818153 13.80000114 -4.18636227
v -3.94000030 14.30000019 -3.83749938
v -5.44296551 13.80000114 -2.52470350
v -4.98938465 14.30000019 -2.31431150
v -5.97214317 13.80000114 -0.57749772
v -5.47446442 14.30000019 -0.52937281
v -5.82586527 13.80000114 1.43502390
v -5.34037685 14.30000019 1.31543863
v -5.02067518 13.80000114 3.28524256
v -4.60228539 14.30000019 3.01147223
v -3.64764118 13.80000114 4.76389647
v -3.34367132 14.30000019 4.36690521
v 16.35331535 -9.30000019 54.98606110
v 15.90205574 -9.80000019 54.77072906
v 15.38720989 -9.80000019 56.65562057
v 15.88527298 -9.30000019 56.69959259
v 15.56383228 -9.80000019 58.60155487
v 16.04583740 -9.30000019 58.46862411
v 16.40963173 -9.80000019 60.36294556
v 16.81474686 -9.30000019 60.06989288
v 17.81785583 -9.80000019 61.71747971
v 18.09495163 -9.30000019 61.30128479
v 19.61077690 -9.80000019 62.49420547
v 19.72488213 -9.30000019 62.00740051
v 21.56210709 -9.80000019 62.59508514
v 21.49881554 -9.30000019 62.09910965
v 23.42556953 -9.80000019 62.00739670
v 23.19287109 -9.30000019 61.56484222
v 24.96597290 -9.80000019 60.80530930
v 24.59323883 -9.30000019 60.47203827
v 25.98890686 -9.80000019 59.14053345
v 25.52317810 -9.30000019 58.95860672
v 26.36525917 -9.80000019 57.22318268
v 25.86531639 -9.30000019 57.21556091
v 26.04753494 -9.80000019 55.29524994
v 25.57647705 -9.30000019 55.46289444
v 16.19050407 -9.80000019 53.63365936
v 16.68983650 -9.30000019 53.65947723
v 16.02085304 -9.80000019 52.47290421
v 16.49191093 -9.30000019 52.30526352
v 20.51917076 -9.30000019 60.37078476
v 21.95558167 -9.30000019 60.20120621
v 19.15143394 -9.30000019 59.90033340
v 18.12326813 -9.30000019 58.88302612
v 17.63831329 -9.30000019 57.52036285
v 17.79261971 -9.30000019 56.08222961
v 18.55562782 -9.30000019 54.85347366
v 19.77621460 -9.30000019 54.07745361
v 21.21262360 -9.30000019 53.90787888
v 22.58036232 -9.30000019 54.37833405
v 23.60853004 -9.30000019 55.39563751
v 24.09348488 -9.30000019 56.75830078
v 23.93917656 -9.30000019 58.19643402
v 23.17616653 -9.30000019 59.42518997
v 2.33486080 -9.80000019 14.01696110
v 3.16543174 -9.30000019 14.85950470
v 0.43848023 -8.19978142 8.68836594
v 0.49465278 -7.29999971 8.84620380
v 0.27749205 -8.97896671 8.23600960
v 0.49465248 7.30000067 8.84620285
v 0.27749205 8.97896671 8.23600960
v 0.49465278 7.30000067 8.84620380
v 0.43848023 8.19978142 8.68836594
v 16.49191093 14.30000019 52.30526352
v 16.02085304 13.80000114 52.47290421
v 15.90205574 13.80000114 54.77072906
v 16.35331535 14.30000019 54.98606110
v 16.19050407 13.80000114 53.63365936
v 16.68983650 14.30000019 53.65947723
v 21.15424538 14.30000019 53.40043640
v 22.65006256 14.30000019 53.84096146
v 25.57647705 14.30000019 55.46289444
v 23.83738136 14.30000019 54.85180283
v 24.51090431 14.30000019 56.25818253
v 25.86531639 14.30000019 57.21556091
v 24.55417252 14.30000019 57.81692123
v 17.48374367 14.30000019 58.75906372
v 16.81474686 14.30000019 60.06989288
v 18.43495178 14.30000019 59.99467850
v 18.09495163 14.30000019 61.30128479
v 19.80648994 14.30000019 60.73657608
v 19.72488213 14.30000019 62.00740051
v 21.36120987 14.30000019 60.85647202
v 21.49881554 14.30000019 62.09910965
v 22.83028793 14.30000019 60.33364868
v 23.19287109 14.30000019 61.56484222
v 23.95970345 14.30000019 59.25849533
v 24.59323883 14.30000019 60.47203827
v 25.52317810 14.30000019 58.95860672
v 19.60857010 14.30000019 53.60639572
v 18.28029823 14.30000019 54.42323685
v 17.39909935 14.30000019 55.70971298
v 17.11734009 14.30000019 57.24338150
v 15.88527298 14.30000019 56.69959259
v 16.04583740 14.30000019 58.46862411
v 7.66441965 9.80000019 3.64097142
v 8.08352852 9.46506310 4.81861591
v 8.39033794 8.54999924 5.68071175
v 8.50263786 7.30000067 5.99626160
v 8.50263786 -7.29999971 5.99626160
v 8.39033794 -8.55000019 5.68071175
v 8.08352852 -9.46506405 4.81861591
v 7.66441965 -9.80000019 3.64097142
v 16.04660225 -9.80000019 27.19386864
v 15.57554531 -9.30000019 27.36151123
v 15.24025726 -9.03205109 26.41939545
v 15.62749386 -9.46506405 26.01622581
v 14.99481010 -8.30000019 25.72972107
v 15.32068443 -8.55000019 25.15412903
v 14.90497017 -7.29999971 25.47728157
v 15.20838451 -7.29999971 24.83857918
v 15.20838451 7.30000067 24.83857918
v 14.90497017 7.30000067 25.47728157
v 14.95601559 8.06536674 25.62071037
v 15.27219009 8.25670910 25.01786423
v 15.10137653 8.71421432 26.02915955
v 15.45389366 9.06776619 25.52842903
v 15.31892776 9.14775944 26.64044952
v 15.72583103 9.60969925 26.29253769
v 15.57554531 9.30000114 27.36151123
v 16.04660225 9.80000019 27.19386864
v 26.04753494 13.80000114 55.29524994
v 13.96285343 7.30000067 25.81256866
v 14.08078098 8.06536674 25.93219376
v 14.41660595 8.71421432 26.27286148
v 14.91920471 9.14775944 26.78270531
v 15.51206112 9.30000114 27.38410568
v 13.96285343 -7.29999971 25.81256866
v 15.51206112 -9.30000019 27.38410568
v 14.73745728 -9.03205109 26.59833527
v 14.17040920 -8.30000019 26.02311516
v 14.01564217 -7.81763792 25.86611748
v 2.33486080 9.80000019 14.01696110
v 16.02085304 9.80000019 52.47290421
v 21.20731544 13.80000114 53.92590714
v 22.41217422 13.80000114 54.28074265
v 22.55785370 13.80000114 54.40476990
v 23.92777443 13.80000114 56.04964828
v 23.57986069 13.80000114 55.41126251
v 23.44118500 13.80000114 55.15680695
v 24.02490425 13.80000114 56.37566757
v 24.03557014 13.80000114 56.75991058
v 24.06240273 13.80000114 57.72657776
v 23.87889862 13.80000114 58.17157364
v 23.54719734 13.80000114 58.97594070
v 23.12820244 13.80000114 59.37480164
v 22.56836891 13.80000114 59.90774155
v 21.93176842 13.80000114 60.13430023
v 21.29516983 13.80000114 60.36085510
v 20.52451897 13.80000114 60.30141830
v 19.94774437 13.80000114 60.25694275
v 19.18245697 13.80000114 59.84298325
v 18.75907707 13.80000114 59.61396408
v 18.16917610 13.80000114 58.84768295
v 17.93469620 13.80000114 58.54309845
v 17.68474579 13.80000114 57.50914001
v 17.61714935 13.80000114 57.22951126
v 17.82676697 13.80000114 56.08850479
v 17.86133766 13.80000114 55.90032959
v 18.57113075 13.80000114 54.86408997
v 18.62504578 13.80000114 54.78538132
v 19.77621460 13.80000114 54.07745361
v 21.11579895 13.80000114 53.89895248
v 16.19050407 9.80000019 53.63365936
v 15.90205574 9.80000019 54.77072906
v 15.38720989 13.80000114 56.65562057
v 15.56383228 13.80000114 58.60155487
v 16.40963173 13.80000114 60.36294556
v 17.81785583 13.80000114 61.71747971
v 19.61077690 13.80000114 62.49420547
v 21.56210709 13.80000114 62.59508514
v 23.42556953 13.80000114 62.00739670
v 24.96597290 13.80000114 60.80530930
v 25.98890686 13.80000114 59.14053345
v 26.36525917 13.80000114 57.22318268
v 26.04753494 9.80000019 55.29524994
v 25.57647705 9.30000114 55.46289444
v 3.16543174 9.30000114 14.85950470
v 16.49191093 9.30000114 52.30526352
v 16.68983650 9.30000114 53.65947723
v 16.35331535 9.30000114 54.98606110
v 20.51917076 9.30000114 60.37078476
v 21.95558167 9.30000114 60.20120621
v 19.15143394 9.30000114 59.90033340
v 18.12326813 9.30000114 58.88302612
v 17.63831329 9.30000114 57.52036285
v 17.79261971 9.30000114 56.08222961
v 18.55562782 9.30000114 54.85347366
v 19.77621460 9.30000114 54.07745361
v 21.21262360 9.30000114 53.90787888
v 22.58036232 9.30000114 54.37833405
v 23.60853004 9.30000114 55.39563751
v 24.09348488 9.30000114 56.75830078
v 23.93917656 9.30000114 58.19643402
v 23.17616653 9.30000114 59.42518997
v 15.38720989 9.80000019 56.65562057
v 15.56383228 9.80000019 58.60155487
v 16.40963173 9.80000019 60.36294556
v 17.81785583 9.80000019 61.71747971
v 19.61077690 9.80000019 62.49420547
v 21.56210709 9.80000019 62.59508514
v 23.42556953 9.80000019 62.00739670
v 24.96597290 9.80000019 60.80530930
v 25.98890686 9.80000019 59.14053345
v 26.36525917 9.80000019 57.22318268
v 25.86531639 9.30000114 57.21556091
v 25.52317810 9.30000114 58.95860672
v 24.59323883 9.30000114 60.47203827
v 15.88527298 9.30000114 56.69959259
v 23.19287109 9.30000114 61.56484222
v 21.49881554 9.30000114 62.09910965
v 19.72488213 9.30000114 62.00740051
v 18.09495163 9.30000114 61.30128479
v 16.81474686 9.30000114 60.06989288
v 16.04583740 9.30000114 58.46862411
f 1 2 3
f 3 2 4
f 1 3 5
f 5 3 6
f 5 6 7
f 7 6 8
f 8 6 9
f 8 9 10
f 10 9 11
f 11 9 12
f 11 12 13
f 14 15 12
f 12 15 16
f 12 16 13
f 17 18 14
f 14 18 19
f 14 19 15
f 20 21 17
f 17 21 22
f 17 22 18
f 23 24 20
f 20 24 25
f 20 25 21
f 26 27 23
f 23 27 28
f 23 28 24
f 29 30 26
f 26 30 31
f 26 31 27
f 32 33 29
f 29 33 34
f 29 34 30
f 35 36 32
f 32 36 37
f 32 37 33
f 38 39 35
f 35 39 40
f 35 40 36
f 41 42 38
f 38 42 43
f 38 43 39
f 2 44 4
f 4 44 45
f 4 45 41
f 41 45 46
f 41 46 42
f 47 48 49
f 49 50 47
f 47 50 51
f 47 51 52
f 51 53 52
f 52 53 54
f 52 54 55
f 54 56 55
f 55 56 57
f 55 57 58
f 57 59 58
f 58 59 60
f 58 60 61
f 60 62 61
f 61 62 63
f 61 63 64
f 63 65 64
f 64 65 66
f 64 66 67
f 66 68 67
f 67 68 69
f 67 69 70
f 69 71 70
f 70 71 72
f 70 72 73
f 72 74 73
f 73 74 75
f 73 75 76
f 75 77 76
f 76 77 78
f 76 78 79
f 78 80 79
f 79 80 81
f 79 81 82
f 81 83 82
f 82 83 84
f 82 84 85
f 84 86 85
f 85 86 87
f 85 87 88
f 87 89 88
f 88 89 90
f 88 90 48
f 48 90 91
f 48 91 49
f 92 93 80
f 80 78 92
f 92 78 77
f 92 77 94
f 77 75 94
f 94 75 74
f 94 74 95
f 74 72 95
f 95 72 71
f 95 71 96
f 71 69 96
f 96 69 68
f 96 68 97
f 68 66 97
f 97 66 65
f 97 65 98
f 65 63 98
f 98 63 62
f 98 62 99
f 62 60 99
f 99 60 59
f 99 59 100
f 59 57 100
f 100 57 56
f 100 56 101
f 56 54 101
f 101 54 53
f 101 53 102
f 53 51 102
f 102 51 50
f 102 50 103
f 50 49 103
f 103 49 91
f 103 91 104
f 91 90 104
f 104 90 89
f 104 89 105
f 89 87 105
f 105 87 86
f 105 86 106
f 86 84 106
f 106 84 83
f 106 83 93
f 93 83 81
f 93 81 80
f 107 108 109
f 109 110 107
f 107 110 111
f 107 111 112
f 111 113 112
f 112 113 114
f 112 114 115
f 115 114 116
f 116 117 115
f 115 117 118
f 115 118 119
f 118 120 119
f 119 120 121
f 119 121 122
f 121 123 122
f 122 123 124
f 122 124 125
f 125 124 126
f 125 126 127
f 126 128 127
f 127 128 129
f 127 129 130
f 129 131 130
f 130 131 132
f 130 132 133
f 132 134 133
f 133 134 135
f 133 135 136
f 135 137 136
f 136 137 138
f 136 138 139
f 138 140 139
f 139 140 141
f 139 141 142
f 141 143 142
f 142 143 144
f 142 144 145
f 144 146 145
f 145 146 147
f 145 147 148
f 148 147 149
f 148 149 108
f 108 149 150
f 108 150 109
f 151 152 153
f 153 152 154
f 153 154 155
f 155 154 156
f 157 158 159
f 159 158 160
f 159 160 161
f 161 160 162
f 163 164 165
f 165 164 166
f 165 166 167
f 167 166 168
f 167 168 169
f 170 171 172
f 172 173 170
f 170 173 174
f 170 174 175
f 175 174 176
f 175 176 177
f 177 176 178
f 177 178 179
f 179 178 167
f 179 167 169
f 180 181 182
f 182 181 183
f 182 183 184
f 184 183 185
f 184 185 186
f 187 186 185
f 185 188 187
f 187 188 189
f 187 189 190
f 190 189 191
f 190 191 192
f 192 191 193
f 192 193 194
f 193 195 194
f 194 195 196
f 194 196 197
f 198 199 200
f 200 199 201
f 200 201 202
f 202 201 203
f 204 205 28
f 28 27 204
f 204 27 31
f 204 31 206
f 31 30 206
f 206 30 34
f 206 34 207
f 34 33 207
f 207 33 37
f 207 37 208
f 37 36 208
f 208 36 40
f 208 40 209
f 40 39 209
f 209 39 43
f 209 43 210
f 43 42 210
f 210 42 46
f 210 46 211
f 46 45 211
f 211 45 44
f 211 44 212
f 44 2 212
f 212 2 1
f 212 1 213
f 1 5 213
f 213 5 7
f 213 7 214
f 7 8 214
f 214 8 10
f 214 10 215
f 10 11 215
f 215 11 13
f 215 13 216
f 216 13 16
f 16 15 216
f 216 15 19
f 216 19 217
f 19 18 217
f 217 18 22
f 217 22 218
f 22 21 218
f 218 21 25
f 218 25 205
f 205 25 24
f 205 24 28
f 185 3 4
f 219 32 220
f 220 32 29
f 185 4 221
f 4 41 221
f 221 41 38
f 221 38 219
f 219 38 35
f 219 35 32
f 17 222 20
f 20 222 223
f 20 223 23
f 23 223 224
f 23 224 26
f 26 224 225
f 26 225 29
f 29 225 226
f 29 226 220
f 185 183 3
f 3 183 181
f 3 181 6
f 6 181 227
f 6 227 9
f 9 227 228
f 9 228 12
f 12 228 229
f 12 229 14
f 14 229 230
f 14 230 17
f 17 230 231
f 17 231 222
f 195 193 232
f 233 185 221
f 233 221 189
f 232 193 221
f 221 193 191
f 221 191 189
f 195 232 196
f 196 232 234
f 196 234 235
f 235 234 236
f 235 236 237
f 237 236 238
f 237 238 239
f 239 238 240
f 239 240 241
f 241 240 242
f 241 242 243
f 242 244 243
f 243 244 245
f 245 244 246
f 246 244 247
f 246 247 248
f 248 247 249
f 249 247 250
f 249 250 251
f 176 252 178
f 178 252 167
f 176 174 252
f 252 174 253
f 252 253 250
f 250 253 172
f 250 172 251
f 167 252 88
f 88 48 167
f 167 48 47
f 167 47 165
f 76 79 254
f 254 79 82
f 254 82 252
f 252 82 85
f 252 85 88
f 254 255 76
f 76 255 256
f 76 256 73
f 73 256 257
f 73 257 70
f 70 257 258
f 70 258 67
f 258 259 67
f 67 259 260
f 67 260 64
f 64 260 261
f 64 261 61
f 61 261 262
f 61 262 58
f 58 262 263
f 58 263 55
f 55 263 264
f 55 264 52
f 52 264 265
f 52 265 47
f 47 265 163
f 47 163 165
f 254 266 267
f 254 267 255
f 255 267 268
f 255 268 256
f 256 268 269
f 256 269 257
f 257 269 270
f 257 270 258
f 258 270 271
f 258 271 259
f 259 271 272
f 259 272 260
f 260 272 273
f 260 273 261
f 261 273 274
f 261 274 262
f 262 274 275
f 262 275 263
f 263 275 276
f 263 276 264
f 264 276 277
f 264 277 265
f 265 277 164
f 265 164 163
f 158 157 278
f 158 278 279
f 279 278 280
f 279 280 281
f 281 280 282
f 281 282 283
f 283 282 284
f 283 284 285
f 285 284 286
f 285 286 287
f 287 286 288
f 287 288 289
f 289 288 290
f 289 290 291
f 291 290 292
f 291 292 293
f 293 292 294
f 293 294 295
f 295 294 296
f 295 296 297
f 297 296 298
f 297 298 299
f 299 298 300
f 299 300 301
f 302 148 108
f 302 108 301
f 301 108 107
f 301 107 112
f 98 287 97
f 97 287 289
f 97 289 96
f 96 289 291
f 96 291 95
f 95 291 293
f 95 293 94
f 115 103 112
f 112 103 104
f 148 302 145
f 145 302 303
f 145 303 142
f 142 303 304
f 142 304 139
f 104 105 112
f 112 105 106
f 112 106 301
f 301 106 93
f 301 93 299
f 299 93 92
f 299 92 297
f 297 92 94
f 297 94 295
f 295 94 293
f 122 156 119
f 119 156 154
f 119 154 115
f 115 154 152
f 115 152 103
f 304 305 139
f 139 305 306
f 139 306 136
f 136 306 307
f 136 307 133
f 133 307 308
f 133 308 130
f 130 308 309
f 130 309 127
f 127 309 310
f 127 310 125
f 125 310 311
f 125 311 122
f 122 311 312
f 122 312 156
f 152 162 103
f 103 162 160
f 103 160 102
f 102 160 158
f 102 158 101
f 101 158 279
f 101 279 100
f 100 279 281
f 100 281 99
f 99 281 283
f 99 283 98
f 98 283 285
f 98 285 287
f 302 313 314
f 302 314 303
f 303 314 315
f 303 315 304
f 304 315 316
f 304 316 305
f 305 316 317
f 305 317 306
f 306 317 318
f 306 318 307
f 307 318 319
f 307 319 308
f 308 319 320
f 308 320 309
f 309 320 321
f 309 321 310
f 310 321 322
f 310 322 311
f 311 322 323
f 311 323 312
f 312 323 155
f 312 155 156
f 181 180 324
f 181 324 227
f 227 324 325
f 227 325 228
f 228 325 326
f 228 326 229
f 229 326 327
f 229 327 230
f 230 327 328
f 230 328 231
f 231 328 329
f 231 329 222
f 222 329 330
f 222 330 223
f 223 330 331
f 223 331 224
f 224 331 332
f 224 332 225
f 225 332 333
f 225 333 226
f 226 333 334
f 226 334 220
f 220 334 335
f 220 335 219
f 336 337 338
f 336 338 339
f 339 338 340
f 339 340 341
f 341 340 342
f 341 342 343
f 343 342 344
f 343 344 345
f 345 344 346
f 345 346 347
f 347 346 348
f 347 348 349
f 349 348 350
f 349 350 351
f 351 350 352
f 351 352 353
f 353 352 354
f 353 354 355
f 355 354 356
f 355 356 357
f 357 356 358
f 357 358 359
f 359 358 202
f 359 202 203
f 360 361 362
f 360 362 363
f 363 362 364
f 363 364 365
f 365 364 366
f 365 366 367
f 367 366 368
f 367 368 369
f 369 368 370
f 369 370 371
f 371 370 372
f 371 372 373
f 373 372 374
f 373 374 375
f 375 374 376
f 375 376 377
f 377 376 378
f 377 378 379
f 379 378 380
f 379 380 381
f 381 380 382
f 381 382 383
f 361 360 384
f 384 360 385
f 384 385 386
f 386 385 387
f 388 389 137
f 137 135 388
f 388 135 134
f 388 134 390
f 129 391 131
f 131 391 390
f 131 390 132
f 132 390 134
f 129 128 391
f 391 128 126
f 391 126 392
f 126 124 392
f 392 124 123
f 392 123 393
f 123 121 393
f 393 121 120
f 393 120 394
f 120 118 394
f 394 118 117
f 394 117 395
f 117 116 395
f 395 116 114
f 395 114 396
f 114 113 396
f 396 113 111
f 396 111 397
f 111 110 397
f 397 110 109
f 397 109 398
f 109 150 398
f 398 150 149
f 398 149 399
f 149 147 399
f 399 147 146
f 399 146 400
f 146 144 400
f 400 144 143
f 400 143 401
f 143 141 401
f 401 141 140
f 401 140 389
f 389 140 138
f 389 138 137
f 402 386 403
f 403 386 387
f 386 151 384
f 384 151 153
f 384 153 361
f 361 153 155
f 162 152 161
f 161 152 151
f 164 157 166
f 166 157 159
f 166 159 168
f 175 161 170
f 170 161 171
f 175 177 161
f 161 177 179
f 161 179 159
f 159 179 169
f 159 169 168
f 404 405 245
f 245 246 404
f 404 246 248
f 404 248 406
f 406 248 249
f 406 249 171
f 171 249 251
f 171 251 172
f 405 407 245
f 245 407 243
f 196 235 197
f 197 235 408
f 243 409 241
f 241 409 410
f 241 410 239
f 239 410 408
f 239 408 237
f 237 408 235
f 190 198 187
f 187 198 200
f 187 200 186
f 186 200 184
f 190 192 198
f 198 192 194
f 198 194 197
f 202 180 200
f 200 180 182
f 200 182 184
f 199 198 411
f 411 198 412
f 413 414 415
f 415 414 416
f 415 416 412
f 412 416 411
f 336 417 418
f 336 418 419
f 336 339 207
f 418 420 419
f 419 420 421
f 419 421 422
f 422 421 423
f 204 345 205
f 205 345 347
f 205 347 218
f 218 347 349
f 218 349 217
f 217 349 351
f 217 351 216
f 216 351 353
f 216 353 215
f 207 339 206
f 206 339 341
f 206 341 204
f 204 341 343
f 204 343 345
f 424 425 426
f 426 425 427
f 426 427 428
f 428 427 429
f 428 429 430
f 430 429 431
f 430 431 432
f 432 431 433
f 432 433 434
f 434 433 435
f 434 435 423
f 423 435 436
f 423 436 422
f 207 208 336
f 336 208 209
f 336 209 417
f 417 209 210
f 417 210 437
f 437 210 211
f 353 355 215
f 215 355 357
f 215 357 214
f 214 357 359
f 214 359 213
f 213 359 203
f 213 203 212
f 212 203 201
f 212 201 211
f 211 201 199
f 211 199 437
f 437 199 411
f 437 411 438
f 438 411 416
f 438 416 439
f 439 416 414
f 439 414 440
f 440 414 441
f 440 441 424
f 424 441 442
f 424 442 425
f 335 443 219
f 219 443 221
f 236 444 238
f 238 444 445
f 238 445 240
f 240 445 446
f 240 446 242
f 221 443 232
f 232 443 444
f 232 444 234
f 234 444 236
f 446 447 242
f 242 447 244
f 244 447 247
f 247 447 448
f 247 448 250
f 250 448 449
f 250 449 252
f 252 449 450
f 254 252 266
f 266 252 450
f 266 300 298
f 266 298 267
f 267 298 296
f 267 296 268
f 268 296 294
f 268 294 269
f 269 294 292
f 269 292 270
f 270 292 290
f 270 290 271
f 271 290 288
f 271 288 272
f 272 288 286
f 272 286 273
f 273 286 284
f 273 284 274
f 274 284 282
f 274 282 275
f 275 282 280
f 275 280 276
f 276 280 278
f 276 278 277
f 277 278 157
f 277 157 164
f 300 313 301
f 301 313 302
f 361 155 323
f 361 323 362
f 362 323 322
f 362 322 364
f 364 322 321
f 364 321 366
f 366 321 320
f 366 320 368
f 368 320 319
f 368 319 370
f 370 319 318
f 370 318 372
f 372 318 317
f 372 317 374
f 374 317 316
f 374 316 376
f 376 316 315
f 376 315 378
f 378 315 314
f 378 314 380
f 380 314 313
f 380 313 382
f 382 451 383
f 383 451 452
f 452 451 453
f 453 451 454
f 453 454 455
f 455 454 456
f 455 456 457
f 457 456 458
f 458 459 457
f 457 459 460
f 460 459 461
f 461 459 462
f 461 462 463
f 463 462 464
f 463 464 465
f 465 464 466
f 465 466 467
f 467 466 468
f 419 469 336
f 336 469 337
f 337 335 334
f 337 334 338
f 338 334 333
f 338 333 340
f 340 333 332
f 340 332 342
f 342 332 331
f 342 331 344
f 344 331 330
f 344 330 346
f 346 330 329
f 346 329 348
f 348 329 328
f 348 328 350
f 350 328 327
f 350 327 352
f 352 327 326
f 352 326 354
f 354 326 325
f 354 325 356
f 356 325 324
f 356 324 358
f 358 324 180
f 358 180 202
f 470 460 461
f 470 461 471
f 471 461 463
f 471 463 472
f 472 463 465
f 472 465 473
f 473 465 467
f 473 467 474
f 470 475 460
f 460 475 457
f 476 452 453
f 476 453 477
f 477 453 455
f 477 455 478
f 478 455 479
f 479 455 457
f 479 457 475
f 394 395 476
f 363 365 392
f 476 395 452
f 392 365 391
f 391 365 367
f 391 367 390
f 390 367 369
f 390 369 388
f 388 369 371
f 388 371 389
f 363 392 360
f 360 392 393
f 360 393 385
f 385 393 394
f 385 394 387
f 387 394 476
f 387 476 403
f 371 373 389
f 389 373 375
f 389 375 401
f 401 375 377
f 401 377 400
f 400 377 379
f 400 379 399
f 399 379 381
f 399 381 398
f 398 381 383
f 398 383 397
f 397 383 452
f 397 452 396
f 396 452 395
f 480 481 412
f 406 171 161
f 412 198 480
f 480 198 197
f 480 197 408
f 404 406 402
f 402 406 161
f 402 161 386
f 386 161 151
f 408 410 480
f 480 410 407
f 480 407 402
f 402 407 405
f 402 405 404
f 418 417 482
f 482 483 418
f 418 483 484
f 418 484 420
f 485 421 486
f 486 421 420
f 486 420 487
f 487 420 484
f 485 488 421
f 421 488 489
f 421 489 423
f 489 490 423
f 423 490 491
f 423 491 434
f 491 492 434
f 434 492 493
f 434 493 432
f 493 494 432
f 432 494 495
f 432 495 430
f 430 495 496
f 430 496 428
f 496 497 428
f 428 497 498
f 428 498 426
f 498 499 426
f 426 499 500
f 426 500 424
f 424 500 501
f 501 502 424
f 424 502 503
f 424 503 440
f 503 504 440
f 440 504 505
f 440 505 439
f 505 506 439
f 439 506 507
f 439 507 438
f 438 507 508
f 438 508 437
f 437 508 509
f 437 509 417
f 417 509 510
f 417 510 482
f 412 481 415
f 415 481 511
f 415 511 413
f 413 511 512
f 414 413 513
f 414 513 441
f 441 513 514
f 441 514 442
f 442 514 515
f 442 515 425
f 425 515 516
f 425 516 427
f 427 516 517
f 427 517 429
f 429 517 518
f 429 518 431
f 431 518 519
f 431 519 433
f 433 519 520
f 433 520 435
f 435 520 521
f 435 521 436
f 436 521 522
f 436 522 422
f 422 522 469
f 422 469 419
f 382 313 451
f 451 313 300
f 451 300 454
f 454 300 456
f 469 444 337
f 337 444 443
f 337 443 335
f 266 450 300
f 300 450 449
f 300 449 456
f 456 449 448
f 456 448 447
f 468 466 445
f 523 468 469
f 469 468 445
f 469 445 444
f 466 464 445
f 445 464 462
f 445 462 446
f 446 462 459
f 446 459 447
f 447 459 458
f 447 458 456
f 468 523 467
f 467 523 524
f 525 480 402
f 473 474 525
f 471 402 403
f 476 477 403
f 403 477 478
f 403 478 479
f 402 471 525
f 525 471 472
f 525 472 473
f 479 475 403
f 403 475 470
f 403 470 471
f 481 480 526
f 526 480 525
f 481 526 511
f 511 526 527
f 511 527 512
f 512 527 528
f 497 496 529
f 529 496 530
f 497 529 498
f 498 529 531
f 498 531 499
f 499 531 500
f 500 531 532
f 500 532 501
f 501 532 502
f 502 532 533
f 502 533 503
f 503 533 504
f 504 533 534
f 504 534 505
f 505 534 506
f 506 534 535
f 506 535 507
f 507 535 508
f 508 535 536
f 508 536 509
f 509 536 510
f 510 536 537
f 510 537 482
f 482 537 483
f 483 537 538
f 483 538 484
f 484 538 487
f 487 538 539
f 487 539 486
f 486 539 485
f 485 539 540
f 485 540 488
f 541 490 540
f 540 490 489
f 540 489 488
f 542 492 541
f 541 492 491
f 541 491 490
f 496 495 530
f 530 495 494
f 530 494 542
f 542 494 493
f 542 493 492
f 413 512 543
f 413 543 513
f 513 543 544
f 513 544 514
f 514 544 545
f 514 545 515
f 515 545 546
f 515 546 516
f 516 546 547
f 516 547 517
f 517 547 548
f 517 548 518
f 518 548 549
f 518 549 519
f 519 549 550
f 519 550 520
f 520 550 551
f 520 551 521
f 521 551 552
f 521 552 522
f 522 552 523
f 522 523 469
f 525 474 526
f 526 474 527
f 467 524 539
f 539 524 540
f 540 524 553
f 540 553 541
f 541 553 554
f 541 554 542
f 542 554 555
f 542 555 530
f 539 538 467
f 467 538 537
f 467 537 474
f 474 537 536
f 474 536 527
f 527 536 535
f 527 535 528
f 528 535 534
f 528 534 556
f 556 534 533
f 555 557 530
f 530 557 558
f 530 558 529
f 529 558 559
f 529 559 531
f 531 559 560
f 531 560 532
f 532 560 561
f 532 561 533
f 533 561 562
f 533 562 556
f 524 523 552
f 524 552 553
f 553 552 551
f 553 551 554
f 554 551 550
f 554 550 555
f 555 550 549
f 555 549 557
f 557 549 548
f 557 548 558
f 558 548 547
f 558 547 559
f 559 547 546
f 559 546 560
f 560 546 545
f 560 545 561
f 561 545 544
f 561 544 562
f 562 544 543
f 562 543 556
f 556 543 512
f 556 512 528

