# https://github.com/mikedh/trimesh

o crank_Link.STL
v 24.98395729 -13.84999943 -16.08032036
v 24.58166695 -13.84999943 -16.07497978
v 24.99070358 -14.02228546 -16.07375336
v 24.52016258 -14.20355129 -16.03973770
v 25.05931091 -14.41829395 -16.00694084
v 24.50565147 -14.23060608 -16.03142357
v 25.06774902 -14.46699619 -15.99872303
v 23.62934113 -14.85000038 -15.52933884
v 23.93281555 -15.35000038 -15.13196945
v 23.87591743 -14.81589985 -15.67061424
v 24.28613663 -15.28833771 -15.40180206
v 23.98863602 -14.76196766 -15.73519802
v 24.36215591 -15.25800514 -15.45985889
v 24.40656662 -15.22913456 -15.49377632
v 24.16169167 -14.67916775 -15.83435154
v 24.67405891 -15.05524349 -15.69806194
v 24.29521179 -14.54863548 -15.91085052
v 24.74147224 -14.99060249 -15.74954605
v 24.80605125 -14.90230465 -15.79886532
v 24.37899971 -14.46671772 -15.95885658
v 24.97395706 -14.67272949 -15.92709541
v 25.01729965 -14.58699608 -15.96019650
v 6.67683840 -14.85000038 -2.58260155
v 6.98031235 -15.35000038 -2.18523121
v 5.49850178 -14.85000038 -0.12836304
v 5.99836588 -15.35000038 -0.14003231
v 5.62349653 -14.85000038 -1.05805516
v 6.10252857 -15.35000038 -0.91477597
v 6.02950764 -14.85000038 -1.90369499
v 6.44087029 -15.35000038 -1.61947525
v 6.27169943 -15.35000038 -1.26712561
v 19.54896927 -13.84999943 -19.71110916
v 18.51715469 -13.84999943 -21.06216812
v 18.45665932 -14.23268318 -21.01596642
v 19.49528885 -14.23268318 -19.65598297
v 18.28438187 -14.55710602 -20.88439560
v 19.34241867 -14.55710602 -19.49900055
v 18.02655029 -14.77387905 -20.68748856
v 19.11363220 -14.77387905 -19.26405907
v 17.72241592 -14.85000038 -20.45521927
v 18.84376144 -14.85000038 -18.98692513
v -3.60123324 -19.35000038 1.04575980
v -3.62442780 -14.85000038 0.96230030
v -2.98027873 -14.85000038 2.27605820
v -3.60956693 -19.35000038 0.96084195
v -3.73582244 -19.35000038 -0.32577375
v -3.71679163 -14.85000038 -0.49795881
v -3.68992424 -19.35000038 -0.49047235
v -3.36586857 -19.35000038 -1.65330911
v -3.24330592 -14.85000038 -1.88240886
v -3.21216440 -19.35000038 -1.85915506
v -2.54133487 -19.35000038 -2.75755644
v -2.27605820 -14.85000038 -2.98027802
v -2.25064588 -19.35000038 -2.93972969
v -1.37357986 -19.35000038 -3.48938036
v -0.96229976 -14.85000038 -3.62442827
v -0.95192957 -19.35000038 -3.57056761
v -0.02031444 -19.35000038 -3.74994493
v 0.49795875 -14.85000038 -3.71679115
v 0.48728099 -19.35000038 -3.65790224
v 1.33569384 -19.35000038 -3.50405812
v 1.88240874 -14.85000038 -3.24330688
v 1.84961224 -19.35000038 -3.18969202
v 2.51130891 -19.35000038 -2.78492880
v 2.98027825 -14.85000038 -2.27605796
v 2.92953348 -19.35000038 -2.23730421
v 3.34775829 -19.35000038 -1.68967938
v 3.62442827 -14.85000038 -0.96230060
v 3.56407118 -19.35000038 -0.94477350
v 3.73207426 -19.35000038 -0.36622950
v 3.71679115 -14.85000038 0.49795908
v 3.65716839 -19.35000038 0.49275923
v 3.61235285 -19.35000038 1.00668192
v 3.24330711 -14.85000038 1.88240802
v 3.19407558 -19.35000038 1.85822594
v 3.00476217 -19.35000038 2.24363589
v 2.27605796 -14.85000038 2.98027849
v 2.24362850 -19.35000038 2.94508862
v 1.99136281 -19.35000038 3.17757368
v 0.96230084 -14.85000038 3.62442732
v 0.94806445 -19.35000038 3.58826303
v 0.70901883 -19.35000038 3.68236256
v -0.49795914 -14.85000038 3.71679139
v -0.49810943 -19.35000038 3.68890119
v -0.66908133 -19.35000038 3.68982744
v -1.88240838 -14.85000038 3.24330664
v -1.87708974 -19.35000038 3.22935367
v -1.95681906 -19.35000038 3.19896126
v -2.98027873 -19.35000038 2.27605820
v 5.99836588 -19.35000038 -0.14003231
v 6.10252857 -19.35000038 -0.91477597
v 6.27169943 -19.35000038 -1.26712561
v 6.44087029 -19.35000038 -1.61947525
v 6.98031235 -19.35000038 -2.18523121
v 6.67683840 -19.85000038 -2.58260155
v 6.02950764 -19.85000038 -1.90369499
v 5.62349653 -19.85000038 -1.05805516
v 5.49850178 -19.85000038 -0.12836304
v 25.45984459 -19.35000038 -16.29817200
v 25.15637207 -19.85000038 -16.69554138
v -0.75829351 -19.85000038 4.18180561
v -2.21772909 -19.85000038 3.62548995
v 0.80355477 -19.85000038 4.17334461
v 2.25687814 -19.85000038 3.60124993
v 3.40539742 -19.85000038 2.54278731
v 4.09399891 -19.85000038 1.14090681
v 4.22968340 -19.85000038 -0.41505951
v 3.79412556 -19.85000038 -1.91496956
v 2.84614968 -19.85000038 -3.15625215
v 1.51378572 -19.85000038 -3.97126555
v -0.02302381 -19.85000038 -4.24993753
v -1.55672371 -19.85000038 -3.95463181
v -2.88017941 -19.85000038 -3.12523079
v -3.81465101 -19.85000038 -1.87375045
v -4.23393297 -19.85000038 -0.36920920
v -4.08139801 -19.85000038 1.18519497
v -3.37764859 -19.85000038 2.57953238
v 25.09390640 -14.53527546 -16.01869965
v 25.45984459 -15.06916428 -16.29817200
v 26.90441895 -19.85000038 -17.31043434
v 27.83422661 -19.85000038 -17.18630219
v 27.69139290 -19.35000038 -16.70713997
v 26.14764404 -19.35000038 -16.66966820
v 25.98172951 -19.85000038 -17.14133644
v 26.53209877 -19.35000038 -16.74012375
v 26.91655159 -19.35000038 -16.81058311
v -4.37178993 -14.85000038 3.33728337
v -5.18901825 -14.85000038 1.82320988
v -5.49844599 -14.85000038 0.13071582
v -5.26979446 -14.85000038 -1.57456899
v -4.52543736 -14.85000038 -3.12576675
v -3.33821869 -14.85000038 -4.37107515
v 5.26912022 -14.85000038 1.57682478
v -3.12673473 -14.85000038 4.52476788
v -1.57569706 -14.85000038 5.26945734
v 0.12953982 -14.85000038 5.49847460
v 1.82209909 -14.85000038 5.18940830
v 3.33634686 -14.85000038 4.37250376
v 4.52409887 -14.85000038 3.12770367
v 5.74813128 -19.35000038 1.72017217
v 5.26912022 -19.85000038 1.57682478
v 4.93538046 -19.35000038 3.41204023
v 4.52409887 -19.85000038 3.12770367
v 3.63965130 -19.35000038 4.77000427
v 3.33634686 -19.85000038 4.37250376
v 1.98774505 -19.35000038 5.66117191
v 1.82209909 -19.85000038 5.18940830
v 0.14131568 -19.35000038 5.99833584
v 0.12953982 -19.85000038 5.49847460
v -1.71894205 -19.35000038 5.74849892
v -1.57569706 -19.85000038 5.26945734
v -3.41098404 -19.35000038 4.93611097
v -3.12673473 -19.85000038 4.52476788
v -4.76922417 -19.35000038 3.64067221
v -4.37178993 -19.85000038 3.33728337
v -5.66074657 -19.35000038 1.98895621
v -5.18901825 -19.85000038 1.82320988
v -5.99830532 -19.35000038 0.14259963
v -5.49844599 -19.85000038 0.13071582
v -5.74886703 -19.35000038 -1.71771169
v -5.26979446 -19.85000038 -1.57456899
v -4.93684053 -19.35000038 -3.40992737
v -4.52543736 -19.85000038 -3.12576675
v -3.64169312 -19.35000038 -4.76844501
v -3.33821869 -19.85000038 -4.37107515
v -3.64169312 -15.35000038 -4.76844501
v -4.93684053 -15.35000038 -3.40992737
v -5.74886703 -15.35000038 -1.71771169
v -5.99830532 -15.35000038 0.14259963
v -5.66074657 -15.35000038 1.98895621
v -4.76922417 -15.35000038 3.64067221
v -3.41098404 -15.35000038 4.93611097
v -1.71894205 -15.35000038 5.74849892
v 0.14131568 -15.35000038 5.99833584
v 1.98774505 -15.35000038 5.66117191
v 3.63965130 -15.35000038 4.77000427
v 4.93538046 -15.35000038 3.41204023
v 5.74813128 -15.35000038 1.72017217
v 27.18768501 -19.85000038 -18.83161545
v 26.02776527 -19.85000038 -19.87757301
v 32.25156403 -19.85000038 -25.61335945
v 33.77577209 -19.85000038 -25.79626083
v 33.19954300 -19.85000038 -24.37207603
v 34.59365082 -19.85000038 -24.28253746
v 33.63509750 -19.85000038 -22.87216759
v 34.90380096 -19.85000038 -22.59017754
v 33.49941254 -19.85000038 -21.31620026
v 34.67588043 -19.85000038 -20.88479233
v 32.81081009 -19.85000038 -19.91431999
v 33.93218613 -19.85000038 -19.33327675
v 31.66229248 -19.85000038 -18.85585594
v 32.74550247 -19.85000038 -18.08746147
v 30.20896912 -19.85000038 -18.28376198
v 31.23195457 -19.85000038 -17.26926041
v 29.53965950 -19.85000038 -16.95874596
v 28.64712143 -19.85000038 -18.27530098
v 26.06719589 -19.85000038 -26.82818222
v 26.52523422 -19.85000038 -25.58233833
v 27.84869003 -19.85000038 -26.41173744
v 27.58109474 -19.85000038 -27.64573479
v 29.38239098 -19.85000038 -26.70704460
v 29.27352142 -19.85000038 -27.95552444
v 30.91919899 -19.85000038 -26.42837143
v 30.97885513 -19.85000038 -27.72723770
v 32.53021240 -19.85000038 -26.98321342
v 25.59076309 -19.85000038 -24.33085823
v 25.17148018 -19.85000038 -22.82631493
v 25.32401466 -19.85000038 -21.27191162
v 25.76371956 -19.35000038 -27.22555161
v 27.41524506 -19.35000038 -28.11742783
v 29.26153183 -19.35000038 -28.45538139
v 31.12189484 -19.35000038 -28.20634079
v 32.81428146 -19.35000038 -27.39467621
v 34.17308044 -19.35000038 -26.09981918
v 35.06530762 -19.35000038 -24.44848633
v 35.40365601 -19.35000038 -22.60227394
v 35.15501404 -19.35000038 -20.74185562
v 34.34371185 -19.35000038 -19.04929161
v 33.04914856 -19.35000038 -17.69022179
v 31.39800262 -19.35000038 -16.79763794
v 29.55186462 -19.35000038 -16.45889473
v 25.48697662 -15.09736633 -16.31859970
v 25.75458336 -15.27676296 -16.49070168
v 27.69139290 -15.35000038 -16.70713997
v 26.89356232 -15.35000038 -16.80991936
v 26.53282356 -15.35000038 -16.73864937
v 26.10439110 -15.35000038 -16.65400314
v 25.76902771 -15.28644276 -16.49998856
v 27.52832413 -19.35000038 -19.22775269
v 28.73633003 -19.35000038 -18.76727867
v 28.90730286 -19.35000038 -18.76820374
v 30.11443329 -19.35000038 -18.77474403
v 30.35347939 -19.35000038 -18.86884499
v 31.39677620 -19.35000038 -19.27953339
v 31.64904213 -19.35000038 -19.51201820
v 32.41017532 -19.35000038 -20.21347237
v 32.59949112 -19.35000038 -20.59888077
v 33.01776505 -19.35000038 -21.45042419
v 33.06258011 -19.35000038 -21.96434784
v 33.13748932 -19.35000038 -22.82333565
v 32.96948624 -19.35000038 -23.40188026
v 32.75317383 -19.35000038 -24.14678574
v 32.33494568 -19.35000038 -24.69441032
v 31.91672325 -19.35000038 -25.24203682
v 31.25502586 -19.35000038 -25.64679909
v 30.74110603 -19.35000038 -25.96116447
v 29.89269447 -19.35000038 -26.11500740
v 29.38509941 -19.35000038 -26.20705223
v 28.45348358 -19.35000038 -26.02767372
v 28.03183365 -19.35000038 -25.94648743
v 27.15476608 -19.35000038 -25.39683533
v 26.86408043 -19.35000038 -25.21466255
v 26.19325066 -19.35000038 -24.31626320
v 26.03954697 -19.35000038 -24.11041641
v 25.71548843 -19.35000038 -22.94757843
v 25.66959000 -19.35000038 -22.78287888
v 25.79584694 -19.35000038 -21.49626350
v 25.80418015 -19.35000038 -21.41134644
v 26.42513466 -19.35000038 -20.18104935
v 27.44859505 -19.35000038 -19.25814438
v 17.41894150 -15.35000038 -20.85259056
v 29.55186462 -15.35000038 -16.45889473
v 31.39800262 -15.35000038 -16.79763794
v 33.04914856 -15.35000038 -17.69022179
v 34.34371185 -15.35000038 -19.04929161
v 35.15501404 -15.35000038 -20.74185562
v 35.40365601 -15.35000038 -22.60227394
v 35.06530762 -15.35000038 -24.44848633
v 34.17308044 -15.35000038 -26.09981918
v 32.81428146 -15.35000038 -27.39467621
v 31.12189484 -15.35000038 -28.20634079
v 29.26153183 -15.35000038 -28.45538139
v 27.41524506 -15.35000038 -28.11742783
v 25.76371956 -15.35000038 -27.22555161
v 18.61105347 -13.84999943 -21.76301193
v 18.52030945 -14.42402554 -21.69371033
v 18.26189041 -14.91065979 -21.49635506
v 17.87514305 -15.23581886 -21.20099449
v 20.10672760 -14.85000038 -22.90526962
v 20.88223839 -14.85000038 -22.99005318
v 20.50585365 -15.21775723 -23.21008492
v 21.29874992 -14.85000038 -23.18648720
v 20.99527550 -15.35000038 -23.58385849
v 26.06719589 -14.85000038 -26.82818222
v 27.83422661 -14.85000038 -17.18630219
v 29.53965950 -14.85000038 -16.95874596
v 31.23195457 -14.85000038 -17.26926041
v 32.74550247 -14.85000038 -18.08746147
v 33.93218613 -14.85000038 -19.33327675
v 34.67588043 -14.85000038 -20.88479233
v 34.90380096 -14.85000038 -22.59017754
v 34.59365082 -14.85000038 -24.28253746
v 33.77577209 -14.85000038 -25.79626083
v 32.53021240 -14.85000038 -26.98321342
v 30.97885513 -14.85000038 -27.72723770
v 29.27352142 -14.85000038 -27.95552444
v 27.58109474 -14.85000038 -27.64573479
v 26.87682915 -14.85000038 -17.30963898
v 25.92982483 -14.85000038 -17.12254143
v 25.78098488 -14.85000038 -21.49480629
v 26.42513466 -14.85000038 -20.18104935
v 25.68862152 -14.85000038 -22.95506477
v 26.16210747 -14.85000038 -24.33951569
v 27.12935638 -14.85000038 -25.43738556
v 28.44311333 -14.85000038 -26.08153343
v 29.90337181 -14.85000038 -26.17389870
v 31.28782272 -14.85000038 -25.70041275
v 32.38569260 -14.85000038 -24.73316574
v 33.02984238 -14.85000038 -23.41940689
v 33.12220383 -14.85000038 -21.95914841
v 32.64871979 -14.85000038 -20.57469749
v 31.68147087 -14.85000038 -19.47682953
v 30.36771393 -14.85000038 -18.83267784
v 28.90745544 -14.85000038 -18.74031448
v 27.52300453 -14.85000038 -19.21379852
v 19.54896927 13.84999943 -19.71110916
v 24.58166695 13.84999943 -16.07497978
v 6.67683840 14.85000038 -2.58260155
v 6.98031235 15.35000038 -2.18523121
v 6.02950764 14.85000038 -1.90369499
v 6.44087029 15.35000038 -1.61947525
v 5.62349653 14.85000038 -1.05805516
v 5.99836588 15.35000038 -0.14003231
v 5.49850178 14.85000038 -0.12836304
v 6.10252857 15.35000038 -0.91477597
v 6.27169943 15.35000038 -1.26712561
v 23.62934113 14.85000038 -15.52933884
v 18.84376144 14.85000038 -18.98692513
v 23.93611145 14.79669762 -15.70510101
v 19.11363220 14.77387905 -19.26405907
v 24.29416847 14.54973984 -15.91025066
v 24.24555779 14.61243629 -15.88240051
v 19.34241867 14.55710602 -19.49900055
v 23.98912048 14.76513290 -15.73547363
v 19.49528885 14.23268318 -19.65598297
v 24.46531487 14.32899094 -16.00831032
v 24.57007599 14.00556183 -16.06833649
v 24.49805832 14.22789955 -16.02707291
v 17.72241592 14.85000038 -20.45521927
v 18.02655029 14.77387905 -20.68748856
v 18.28438187 14.55710602 -20.88439560
v 18.45665932 14.23268318 -21.01596642
v 18.51715469 13.84999943 -21.06216812
v -3.34775805 19.35000038 1.68967903
v -2.98027873 14.85000038 2.27605820
v -3.62442780 14.85000038 0.96230030
v -3.71679163 14.85000038 -0.49795881
v -3.73207378 19.35000038 0.36622924
v -3.56407094 19.35000038 0.94477320
v -3.24330592 14.85000038 -1.88240886
v -3.61235309 19.35000038 -1.00668156
v -3.65716720 19.35000038 -0.49276003
v -2.27605820 14.85000038 -2.98027802
v -3.00476265 19.35000038 -2.24363542
v -3.19407606 19.35000038 -1.85822570
v -0.96229976 14.85000038 -3.62442827
v -1.99136329 19.35000038 -3.17757320
v -2.24362755 19.35000038 -2.94508958
v 0.49795875 14.85000038 -3.71679115
v -0.70901924 19.35000038 -3.68236232
v -0.94806486 19.35000038 -3.58826280
v 1.88240874 14.85000038 -3.24330688
v 0.66908246 19.35000038 -3.68982840
v 0.49811053 19.35000038 -3.68890190
v 2.98027825 14.85000038 -2.27605796
v 1.95681953 19.35000038 -3.19896150
v 1.87709010 19.35000038 -3.22935390
v 3.62442827 14.85000038 -0.96230060
v 3.60123372 19.35000038 -1.04576004
v 2.98027825 19.35000038 -2.27605796
v 3.71679115 14.85000038 0.49795908
v 3.73582339 19.35000038 0.32577291
v 3.60956717 19.35000038 -0.96084225
v 3.24330711 14.85000038 1.88240802
v 3.36586833 19.35000038 1.65330946
v 3.68992543 19.35000038 0.49047148
v 2.27605796 14.85000038 2.98027849
v 2.54133439 19.35000038 2.75755668
v 3.21216393 19.35000038 1.85915542
v 0.96230084 14.85000038 3.62442732
v 1.37357950 19.35000038 3.48938060
v 2.25064659 19.35000038 2.93972874
v -0.49795914 14.85000038 3.71679139
v 0.02031407 19.35000038 3.74994540
v 0.95192915 19.35000038 3.57056785
v -1.88240838 14.85000038 3.24330664
v -1.33569348 19.35000038 3.50405788
v -0.48727989 19.35000038 3.65790153
v -2.92953348 19.35000038 2.23730397
v -2.51130867 19.35000038 2.78492856
v -1.84961188 19.35000038 3.18969178
v 19.52874184 -14.85000038 -22.46385765
v 19.17755508 -14.77387905 -22.19565582
v 18.87983704 -14.55710602 -21.96828461
v 18.68090820 -14.23268318 -21.81636238
v 22.93517685 -14.85000038 -21.04374504
v 25.76041603 -14.83638668 -17.07343674
v 25.38787079 -14.66277599 -16.87233925
v 25.51768875 -14.75461197 -16.95993423
v 25.55957031 -14.76872158 -16.97951698
v 25.63339806 -14.79359436 -17.01404190
v 25.05612564 -13.84999943 -16.61898422
v 25.12893867 -14.22893620 -16.67459106
v 25.14390945 -14.30684948 -16.68602371
v 25.30411911 -14.54058933 -16.80837822
v 24.98395729 13.84999943 -16.08032036
v 25.02912903 14.29941273 -16.03633881
v 25.04986954 14.39521503 -16.01613617
v 25.05471420 14.41466236 -16.01141930
v 24.87909698 14.82491779 -15.85464954
v 25.06774712 14.46699619 -15.99872303
v 24.81034851 14.90585804 -15.80214691
v 24.56370735 15.14319611 -15.61378384
v 24.84037590 14.87696266 -15.82507801
v 24.51824570 15.17385674 -15.57906628
v 24.40571594 15.22270489 -15.49312687
v 24.18286133 15.31944370 -15.32293129
v 24.12182617 15.33261490 -15.27631760
v 23.93281555 15.35000038 -15.13196945
v 6.98031235 19.35000038 -2.18523121
v 6.44087029 19.35000038 -1.61947525
v 6.27169943 19.35000038 -1.26712561
v 6.10252857 19.35000038 -0.91477597
v 5.99836588 19.35000038 -0.14003231
v 5.49850178 19.85000038 -0.12836304
v 5.62349653 19.85000038 -1.05805516
v 6.02950764 19.85000038 -1.90369499
v 6.67683840 19.85000038 -2.58260155
v 25.45984459 19.35000038 -16.29817200
v 25.15637207 19.85000038 -16.69554138
v 4.23393250 19.85000038 0.36920950
v 4.08139849 19.85000038 -1.18519521
v 3.81465077 19.85000038 1.87375069
v 2.88017893 19.85000038 3.12523103
v 1.55672324 19.85000038 3.95463181
v 0.02302343 19.85000038 4.24993753
v -1.51378536 19.85000038 3.97126508
v -2.84615016 19.85000038 3.15625238
v -3.79412603 19.85000038 1.91496980
v -4.22968292 19.85000038 0.41505921
v -4.09399939 19.85000038 -1.14090645
v -3.40539789 19.85000038 -2.54278708
v -2.25687838 19.85000038 -3.60124946
v -0.80355519 19.85000038 -4.17334414
v 0.75829315 19.85000038 -4.18180513
v 2.21772933 19.85000038 -3.62549019
v 3.37764883 19.85000038 -2.57953262
v 5.74813128 15.35000038 1.72017217
v 5.26912022 14.85000038 1.57682478
v 4.93538046 15.35000038 3.41204023
v 4.52409887 14.85000038 3.12770367
v 3.63965130 15.35000038 4.77000427
v 3.33634686 14.85000038 4.37250376
v 1.98774505 15.35000038 5.66117191
v 1.82209909 14.85000038 5.18940830
v 0.14131568 15.35000038 5.99833584
v 0.12953982 14.85000038 5.49847460
v -1.71894205 15.35000038 5.74849892
v -1.57569706 14.85000038 5.26945734
v -3.41098404 15.35000038 4.93611097
v -3.12673473 14.85000038 4.52476788
v -4.76922417 15.35000038 3.64067221
v -4.37178993 14.85000038 3.33728337
v -5.66074657 15.35000038 1.98895621
v -5.18901825 14.85000038 1.82320988
v -5.99830532 15.35000038 0.14259963
v -5.49844599 14.85000038 0.13071582
v -5.74886703 15.35000038 -1.71771169
v -5.26979446 14.85000038 -1.57456899
v -4.93684053 15.35000038 -3.40992737
v -4.52543736 14.85000038 -3.12576675
v -3.64169312 15.35000038 -4.76844501
v -3.33821869 14.85000038 -4.37107515
v -3.33821869 19.85000038 -4.37107515
v -3.64169312 19.35000038 -4.76844501
v -4.93684053 19.35000038 -3.40992737
v -4.52543736 19.85000038 -3.12576675
v -5.74886703 19.35000038 -1.71771169
v -5.26979446 19.85000038 -1.57456899
v -5.99830532 19.35000038 0.14259963
v -5.49844599 19.85000038 0.13071582
v -5.66074657 19.35000038 1.98895621
v -5.18901825 19.85000038 1.82320988
v -4.76922417 19.35000038 3.64067221
v -4.37178993 19.85000038 3.33728337
v -3.41098404 19.35000038 4.93611097
v -3.12673473 19.85000038 4.52476788
v -1.71894205 19.35000038 5.74849892
v -1.57569706 19.85000038 5.26945734
v 0.14131568 19.35000038 5.99833584
v 0.12953982 19.85000038 5.49847460
v 1.98774505 19.35000038 5.66117191
v 1.82209909 19.85000038 5.18940830
v 3.63965130 19.35000038 4.77000427
v 3.33634686 19.85000038 4.37250376
v 4.93538046 19.35000038 3.41204023
v 4.52409887 19.85000038 3.12770367
v 5.74813128 19.35000038 1.72017217
v 5.26912022 19.85000038 1.57682478
v 18.61105347 13.84999943 -21.76301193
v 22.69327736 -14.77387905 -20.72998428
v 22.48820686 -14.55710602 -20.46398926
v 22.35118294 -14.23268318 -20.28625870
v 22.30306625 -13.84999943 -20.22384644
v 25.05612564 13.84999943 -16.61898422
v 25.98172951 19.85000038 -17.14133644
v 27.69139290 19.35000038 -16.70713997
v 27.83422661 19.85000038 -17.18630219
v 26.91655159 19.35000038 -16.81058311
v 26.90441895 19.85000038 -17.31043434
v 26.53209877 19.35000038 -16.74012375
v 26.14764404 19.35000038 -16.66966820
v 25.09390640 14.53527546 -16.01869965
v 25.45984459 15.06916428 -16.29817200
v 26.55926323 19.85000038 -19.30085373
v 25.61128807 19.85000038 -20.54213715
v 25.17572975 19.85000038 -22.04204750
v 25.31141472 19.85000038 -23.59801292
v 26.06719589 19.85000038 -26.82818222
v 28.60185814 19.85000038 -26.63045120
v 27.58109474 19.85000038 -27.64573479
v 27.14853477 19.85000038 -26.05835724
v 26.00001526 19.85000038 -24.99989510
v 33.22006226 19.85000038 -20.58335495
v 34.67588043 19.85000038 -20.88479233
v 33.63934708 19.85000038 -22.08789825
v 34.90380096 19.85000038 -22.59017754
v 33.48681259 19.85000038 -23.64230156
v 34.59365082 19.85000038 -24.28253746
v 32.78306198 19.85000038 -25.03663826
v 33.77577209 19.85000038 -25.79626083
v 31.62314415 19.85000038 -26.08259773
v 32.53021240 19.85000038 -26.98321342
v 30.16370773 19.85000038 -26.63891220
v 30.97885513 19.85000038 -27.72723770
v 29.27352142 19.85000038 -27.95552444
v 27.89162827 19.85000038 -18.48584175
v 29.42843819 19.85000038 -18.20717049
v 29.53965950 19.85000038 -16.95874596
v 30.96213722 19.85000038 -18.50247574
v 31.23195457 19.85000038 -17.26926041
v 32.28559494 19.85000038 -19.33187675
v 32.74550247 19.85000038 -18.08746147
v 33.93218613 19.85000038 -19.33327675
v 25.76371956 19.35000038 -27.22555161
v 17.41894150 15.35000038 -20.85259056
v 17.87514305 15.23581886 -21.20099449
v 18.26189041 14.91065979 -21.49635506
v 18.52030945 14.42402554 -21.69371033
v 22.30306625 13.84999943 -20.22384644
v 25.75370598 15.27737522 -16.49036026
v 25.63377190 14.79352283 -17.01411819
v 25.75616074 14.83565903 -17.07191658
v 26.06876755 15.34935570 -16.64042091
v 25.92982483 14.85000038 -17.12254143
v 26.10439110 15.35000038 -16.65400314
v 25.51254463 14.75178432 -16.95686722
v 25.74129486 15.27453995 -16.48444939
v 25.45791626 14.71278477 -16.91983032
v 25.38787079 14.66277599 -16.87233925
v 25.14390945 14.30684948 -16.68602371
v 25.16884232 14.34322643 -16.70506668
v 33.01498032 19.35000038 -23.41794968
v 33.14123535 19.35000038 -22.13133240
v 33.09533691 19.35000038 -21.96663475
v 32.77128220 19.35000038 -20.80379868
v 32.61757660 19.35000038 -20.59795189
v 31.94674873 19.35000038 -19.69955063
v 31.65606117 19.35000038 -19.51737785
v 30.77899361 19.35000038 -18.96772766
v 30.35734367 19.35000038 -18.88653946
v 29.42572784 19.35000038 -18.70716095
v 28.91813278 19.35000038 -18.79920387
v 28.06971931 19.35000038 -18.95304871
v 27.55580139 19.35000038 -19.26741600
v 26.89410400 19.35000038 -19.67217827
v 26.42513466 19.35000038 -20.18104935
v 26.05765533 19.35000038 -20.76742744
v 25.84134293 19.35000038 -21.51233292
v 25.67333984 19.35000038 -22.09087563
v 25.74824524 19.35000038 -22.94986725
v 25.79306030 19.35000038 -23.46378899
v 26.21133804 19.35000038 -24.31533241
v 26.40065193 19.35000038 -24.70074272
v 27.16178513 19.35000038 -25.40219498
v 27.41404915 19.35000038 -25.63467979
v 28.45734978 19.35000038 -26.04536819
v 28.69639587 19.35000038 -26.13946915
v 29.90352440 19.35000038 -26.14600754
v 30.07449532 19.35000038 -26.14693260
v 31.28250313 19.35000038 -25.68646049
v 31.36223221 19.35000038 -25.65606880
v 32.38569260 19.35000038 -24.73316574
v 33.00664520 19.35000038 -23.50286674
v 27.69139290 15.35000038 -16.70713997
v 26.89356232 15.35000038 -16.80991936
v 26.53282356 15.35000038 -16.73864937
v 29.55186462 19.35000038 -16.45889473
v 31.39800262 19.35000038 -16.79763794
v 33.04914856 19.35000038 -17.69022179
v 34.34371185 19.35000038 -19.04929161
v 35.15501404 19.35000038 -20.74185562
v 35.40365601 19.35000038 -22.60227394
v 35.06530762 19.35000038 -24.44848633
v 34.17308044 19.35000038 -26.09981918
v 32.81428146 19.35000038 -27.39467621
v 31.12189484 19.35000038 -28.20634079
v 29.26153183 19.35000038 -28.45538139
v 27.41524506 19.35000038 -28.11742783
v 19.06989479 14.71602535 -22.11343575
v 18.73399925 14.34999943 -21.85690689
v 18.64232063 14.10881901 -21.78689194
v 20.50585365 15.21775723 -23.21008492
v 20.10672760 14.85000038 -22.90526962
v 19.52874184 14.85000038 -22.46385765
v 20.99527550 15.35000038 -23.58385849
v 25.76371956 15.35000038 -27.22555161
v 26.87682915 14.85000038 -17.30963898
v 27.83422661 14.85000038 -17.18630219
v 21.29874992 14.85000038 -23.18648720
v 26.06719589 14.85000038 -26.82818222
v 20.88223839 14.85000038 -22.99005318
v 22.32460403 14.10881901 -20.25178528
v 22.38775253 14.34999943 -20.33369255
v 22.61912155 14.71602535 -20.63379669
v 22.93517685 14.85000038 -21.04374504
v 26.42513466 14.85000038 -20.18104935
v 25.78098488 14.85000038 -21.49480629
v 25.68862152 14.85000038 -22.95506477
v 26.16210747 14.85000038 -24.33951569
v 27.12935638 14.85000038 -25.43738556
v 28.44311333 14.85000038 -26.08153343
v 29.90337181 14.85000038 -26.17389870
v 31.28782272 14.85000038 -25.70041275
v 32.38569260 14.85000038 -24.73316574
v 33.02984238 14.85000038 -23.41940689
v 33.12220383 14.85000038 -21.95914841
v 32.64871979 14.85000038 -20.57469749
v 31.68147087 14.85000038 -19.47682953
v 30.36771393 14.85000038 -18.83267784
v 28.90745544 14.85000038 -18.74031448
v 27.52300453 14.85000038 -19.21379852
v 29.55186462 15.35000038 -16.45889473
v 31.39800262 15.35000038 -16.79763794
v 33.04914856 15.35000038 -17.69022179
v 34.34371185 15.35000038 -19.04929161
v 35.15501404 15.35000038 -20.74185562
v 35.40365601 15.35000038 -22.60227394
v 35.06530762 15.35000038 -24.44848633
v 34.17308044 15.35000038 -26.09981918
v 32.81428146 15.35000038 -27.39467621
v 31.12189484 15.35000038 -28.20634079
v 29.26153183 15.35000038 -28.45538139
v 27.41524506 15.35000038 -28.11742783
v 27.58109474 14.85000038 -27.64573479
v 31.23195457 14.85000038 -17.26926041
v 29.53965950 14.85000038 -16.95874596
v 32.74550247 14.85000038 -18.08746147
v 33.93218613 14.85000038 -19.33327675
v 34.67588043 14.85000038 -20.88479233
v 34.90380096 14.85000038 -22.59017754
v 34.59365082 14.85000038 -24.28253746
v 33.77577209 14.85000038 -25.79626083
v 32.53021240 14.85000038 -26.98321342
v 30.97885513 14.85000038 -27.72723770
v 29.27352142 14.85000038 -27.95552444
f 1 2 3
f 3 2 4
f 3 4 5
f 5 4 6
f 5 6 7
f 8 9 10
f 10 9 11
f 10 11 12
f 12 11 13
f 12 13 14
f 12 14 15
f 15 14 16
f 15 16 17
f 17 16 18
f 17 18 19
f 17 19 20
f 20 19 21
f 20 21 6
f 6 21 22
f 6 22 7
f 8 23 9
f 9 23 24
f 25 26 27
f 27 26 28
f 27 28 29
f 24 23 30
f 30 23 29
f 30 29 31
f 31 29 28
f 32 33 34
f 32 34 35
f 35 34 36
f 35 36 37
f 37 36 38
f 37 38 39
f 39 38 40
f 39 40 41
f 42 43 44
f 42 45 43
f 43 45 46
f 43 46 47
f 46 48 47
f 47 48 49
f 47 49 50
f 49 51 50
f 50 51 52
f 50 52 53
f 52 54 53
f 53 54 55
f 53 55 56
f 55 57 56
f 56 57 58
f 56 58 59
f 58 60 59
f 59 60 61
f 59 61 62
f 61 63 62
f 62 63 64
f 62 64 65
f 64 66 65
f 65 66 67
f 65 67 68
f 67 69 68
f 68 69 70
f 68 70 71
f 70 72 71
f 71 72 73
f 71 73 74
f 73 75 74
f 74 75 76
f 74 76 77
f 76 78 77
f 77 78 79
f 77 79 80
f 79 81 80
f 80 81 82
f 80 82 83
f 82 84 83
f 83 84 85
f 83 85 86
f 85 87 86
f 86 87 88
f 86 88 44
f 44 88 89
f 44 89 42
f 26 90 28
f 28 90 91
f 28 91 31
f 31 91 92
f 31 92 30
f 30 92 93
f 30 93 24
f 24 93 94
f 95 94 96
f 96 94 93
f 96 93 97
f 90 98 91
f 91 98 97
f 91 97 92
f 92 97 93
f 99 94 100
f 100 94 95
f 101 102 87
f 87 85 101
f 101 85 84
f 101 84 103
f 84 82 103
f 103 82 81
f 103 81 104
f 81 79 104
f 104 79 78
f 104 78 105
f 78 76 105
f 105 76 75
f 105 75 106
f 75 73 106
f 106 73 72
f 106 72 107
f 72 70 107
f 107 70 69
f 107 69 108
f 69 67 108
f 108 67 66
f 108 66 109
f 109 66 64
f 109 64 110
f 64 63 110
f 110 63 61
f 110 61 111
f 61 60 111
f 111 60 58
f 111 58 112
f 58 57 112
f 112 57 55
f 112 55 113
f 113 55 54
f 54 52 113
f 113 52 51
f 113 51 114
f 51 49 114
f 114 49 48
f 114 48 115
f 48 46 115
f 115 46 45
f 115 45 116
f 116 45 42
f 116 42 117
f 117 42 89
f 117 89 102
f 102 89 88
f 102 88 87
f 118 7 22
f 118 22 119
f 18 99 19
f 19 99 119
f 19 119 21
f 21 119 22
f 18 16 99
f 99 16 14
f 99 14 13
f 24 94 9
f 9 94 99
f 9 99 11
f 11 99 13
f 120 121 122
f 99 100 123
f 123 100 124
f 123 124 125
f 125 124 120
f 125 120 126
f 126 120 122
f 86 44 127
f 68 29 65
f 65 29 23
f 127 44 128
f 128 44 43
f 128 43 129
f 129 43 47
f 129 47 130
f 130 47 50
f 130 50 131
f 40 132 56
f 74 133 71
f 71 133 25
f 71 25 68
f 68 25 27
f 68 27 29
f 127 134 86
f 86 134 135
f 86 135 83
f 83 135 136
f 83 136 80
f 80 136 137
f 80 137 77
f 77 137 138
f 77 138 74
f 74 138 139
f 74 139 133
f 131 50 132
f 132 50 53
f 132 53 56
f 23 8 65
f 65 8 41
f 65 41 62
f 62 41 40
f 62 40 59
f 59 40 56
f 98 90 140
f 98 140 141
f 141 140 142
f 141 142 143
f 143 142 144
f 143 144 145
f 145 144 146
f 145 146 147
f 147 146 148
f 147 148 149
f 149 148 150
f 149 150 151
f 151 150 152
f 151 152 153
f 153 152 154
f 153 154 155
f 155 154 156
f 155 156 157
f 157 156 158
f 157 158 159
f 159 158 160
f 159 160 161
f 161 160 162
f 161 162 163
f 163 162 164
f 163 164 165
f 132 166 167
f 132 167 131
f 131 167 168
f 131 168 130
f 130 168 169
f 130 169 129
f 129 169 170
f 129 170 128
f 128 170 171
f 128 171 127
f 127 171 172
f 127 172 134
f 134 172 173
f 134 173 135
f 135 173 174
f 135 174 136
f 136 174 175
f 136 175 137
f 137 175 176
f 137 176 138
f 138 176 177
f 138 177 139
f 139 177 178
f 139 178 133
f 133 178 26
f 133 26 25
f 179 124 180
f 180 124 100
f 181 182 183
f 183 182 184
f 183 184 185
f 185 184 186
f 185 186 187
f 187 186 188
f 187 188 189
f 189 188 190
f 189 190 191
f 191 190 192
f 191 192 193
f 192 194 193
f 193 194 195
f 193 195 196
f 196 195 121
f 196 121 179
f 179 121 120
f 179 120 124
f 165 197 198
f 198 197 199
f 199 197 200
f 199 200 201
f 201 200 202
f 201 202 203
f 203 202 204
f 203 204 181
f 181 204 205
f 181 205 182
f 95 96 108
f 108 96 97
f 108 97 107
f 107 97 98
f 107 98 106
f 106 98 141
f 106 141 105
f 105 141 143
f 105 143 104
f 104 143 145
f 104 145 103
f 198 206 165
f 165 206 207
f 165 207 111
f 114 163 113
f 113 163 165
f 113 165 112
f 112 165 111
f 145 147 103
f 103 147 149
f 103 149 101
f 101 149 151
f 101 151 102
f 102 151 153
f 102 153 117
f 117 153 155
f 117 155 116
f 116 155 157
f 116 157 115
f 115 157 159
f 115 159 114
f 114 159 161
f 114 161 163
f 100 95 180
f 180 95 108
f 180 108 208
f 208 108 109
f 208 109 207
f 207 109 110
f 207 110 111
f 197 209 210
f 197 210 200
f 200 210 211
f 200 211 202
f 202 211 212
f 202 212 204
f 204 212 213
f 204 213 205
f 205 213 214
f 205 214 182
f 182 214 215
f 182 215 184
f 184 215 216
f 184 216 186
f 186 216 217
f 186 217 188
f 188 217 218
f 188 218 190
f 190 218 219
f 190 219 192
f 192 219 220
f 192 220 194
f 194 220 221
f 194 221 195
f 195 221 122
f 195 122 121
f 222 119 99
f 222 99 223
f 122 224 126
f 126 224 225
f 126 225 125
f 125 225 226
f 125 226 123
f 123 226 227
f 123 227 99
f 99 227 228
f 99 228 223
f 196 179 229
f 229 230 196
f 196 230 231
f 196 231 193
f 231 232 193
f 193 232 233
f 193 233 191
f 233 234 191
f 191 234 235
f 191 235 189
f 235 236 189
f 189 236 237
f 189 237 187
f 237 238 187
f 187 238 239
f 187 239 185
f 239 240 185
f 185 240 241
f 185 241 183
f 241 242 183
f 183 242 243
f 183 243 181
f 181 243 244
f 181 244 203
f 244 245 203
f 203 245 246
f 203 246 201
f 246 247 201
f 201 247 248
f 201 248 199
f 248 249 199
f 199 249 250
f 199 250 198
f 198 250 251
f 251 252 198
f 198 252 253
f 198 253 206
f 253 254 206
f 206 254 255
f 206 255 207
f 255 256 207
f 207 256 257
f 207 257 208
f 208 257 258
f 208 258 180
f 180 258 259
f 180 259 179
f 179 259 260
f 179 260 229
f 20 6 35
f 4 2 32
f 35 6 32
f 32 6 4
f 12 15 37
f 37 15 17
f 37 17 35
f 35 17 20
f 12 37 39
f 12 39 10
f 10 39 41
f 10 41 8
f 132 40 166
f 166 40 261
f 166 164 162
f 166 162 167
f 167 162 160
f 167 160 168
f 168 160 158
f 168 158 169
f 169 158 156
f 169 156 170
f 170 156 154
f 170 154 171
f 171 154 152
f 171 152 172
f 172 152 150
f 172 150 173
f 173 150 148
f 173 148 174
f 174 148 146
f 174 146 175
f 175 146 144
f 175 144 176
f 176 144 142
f 176 142 177
f 177 142 140
f 177 140 178
f 178 140 90
f 178 90 26
f 164 209 165
f 165 209 197
f 224 122 221
f 224 221 262
f 262 221 220
f 262 220 263
f 263 220 219
f 263 219 264
f 264 219 218
f 264 218 265
f 265 218 217
f 265 217 266
f 266 217 216
f 266 216 267
f 267 216 215
f 267 215 268
f 268 215 214
f 268 214 269
f 269 214 213
f 269 213 270
f 270 213 212
f 270 212 271
f 271 212 211
f 271 211 272
f 272 211 210
f 272 210 273
f 273 210 209
f 273 209 274
f 33 275 34
f 34 275 276
f 34 276 36
f 36 276 277
f 36 277 38
f 38 277 278
f 38 278 40
f 40 278 261
f 279 280 281
f 281 280 282
f 281 282 283
f 282 284 283
f 283 284 274
f 285 224 262
f 285 262 286
f 286 262 263
f 286 263 287
f 287 263 264
f 287 264 288
f 288 264 265
f 288 265 289
f 289 265 266
f 289 266 290
f 290 266 267
f 290 267 291
f 291 267 268
f 291 268 292
f 292 268 269
f 292 269 293
f 293 269 270
f 293 270 294
f 294 270 271
f 294 271 295
f 295 271 272
f 295 272 296
f 296 272 273
f 296 273 297
f 297 273 274
f 297 274 284
f 298 299 227
f 224 285 225
f 225 285 298
f 225 298 226
f 226 298 227
f 258 300 301
f 258 257 300
f 300 257 256
f 300 256 302
f 256 255 302
f 302 255 254
f 302 254 303
f 254 253 303
f 303 253 252
f 303 252 304
f 252 251 304
f 304 251 250
f 304 250 305
f 250 249 305
f 305 249 248
f 305 248 306
f 248 247 306
f 306 247 246
f 306 246 307
f 246 245 307
f 307 245 244
f 307 244 308
f 244 243 308
f 308 243 242
f 308 242 309
f 242 241 309
f 309 241 240
f 309 240 310
f 240 239 310
f 310 239 238
f 310 238 311
f 238 237 311
f 311 237 236
f 311 236 312
f 236 235 312
f 312 235 234
f 312 234 313
f 234 233 313
f 313 233 232
f 313 232 314
f 232 231 314
f 314 231 230
f 314 230 315
f 230 229 315
f 315 229 260
f 315 260 301
f 301 260 259
f 301 259 258
f 32 2 316
f 316 2 317
f 318 319 320
f 320 319 321
f 320 321 322
f 323 324 325
f 325 324 322
f 325 322 326
f 326 322 321
f 327 328 329
f 329 328 330
f 331 332 333
f 333 332 334
f 333 334 330
f 330 334 329
f 331 333 335
f 331 335 336
f 317 337 316
f 316 337 338
f 316 338 335
f 335 338 336
f 328 339 340
f 328 340 330
f 330 340 341
f 330 341 333
f 333 341 342
f 333 342 335
f 335 342 343
f 335 343 316
f 344 345 346
f 347 348 346
f 346 348 349
f 346 349 344
f 350 351 347
f 347 351 352
f 347 352 348
f 353 354 350
f 350 354 355
f 350 355 351
f 356 357 353
f 353 357 358
f 353 358 354
f 359 360 356
f 356 360 361
f 356 361 357
f 362 363 359
f 359 363 364
f 359 364 360
f 365 366 362
f 362 366 367
f 362 367 363
f 368 369 365
f 365 369 370
f 365 370 366
f 371 372 368
f 368 372 373
f 368 373 369
f 374 375 371
f 371 375 376
f 371 376 372
f 377 378 374
f 374 378 379
f 374 379 375
f 380 381 377
f 377 381 382
f 377 382 378
f 383 384 380
f 380 384 385
f 380 385 381
f 386 387 383
f 383 387 388
f 383 388 384
f 344 389 345
f 345 389 390
f 345 390 386
f 386 390 391
f 386 391 387
f 32 316 33
f 33 316 343
f 392 279 281
f 164 281 209
f 209 281 283
f 209 283 274
f 393 278 394
f 394 278 277
f 394 277 395
f 395 277 276
f 395 276 275
f 393 392 278
f 278 392 281
f 278 281 261
f 261 281 164
f 261 164 166
f 279 392 280
f 280 392 396
f 297 284 396
f 396 284 282
f 396 282 280
f 300 302 396
f 396 302 303
f 396 303 297
f 303 304 297
f 297 304 305
f 297 305 296
f 296 305 306
f 310 291 309
f 309 291 292
f 309 292 308
f 308 292 293
f 308 293 307
f 307 293 294
f 307 294 306
f 306 294 295
f 306 295 296
f 314 286 313
f 313 286 287
f 313 287 312
f 312 287 288
f 312 288 311
f 311 288 289
f 311 289 310
f 310 289 290
f 310 290 291
f 300 396 301
f 301 396 299
f 301 299 315
f 315 299 298
f 315 298 314
f 314 298 285
f 314 285 286
f 227 299 228
f 228 299 397
f 228 397 223
f 398 119 399
f 399 119 222
f 399 222 400
f 400 222 223
f 400 223 401
f 401 223 397
f 5 7 118
f 402 1 403
f 403 1 3
f 403 3 404
f 3 5 404
f 404 5 118
f 404 118 405
f 405 118 119
f 405 119 398
f 406 317 1
f 1 317 2
f 317 406 337
f 337 406 407
f 337 407 338
f 338 407 408
f 338 408 409
f 410 331 411
f 411 331 336
f 411 336 409
f 409 336 338
f 332 412 334
f 334 412 413
f 410 414 331
f 331 414 412
f 331 412 332
f 413 415 334
f 334 415 416
f 334 416 417
f 334 417 329
f 329 417 418
f 329 418 327
f 327 418 419
f 419 319 327
f 327 319 318
f 319 420 321
f 321 420 421
f 321 421 326
f 326 421 422
f 326 422 325
f 325 422 423
f 325 423 323
f 323 423 424
f 425 424 426
f 426 424 423
f 426 423 427
f 420 428 421
f 421 428 427
f 421 427 422
f 422 427 423
f 429 430 420
f 420 430 428
f 431 432 373
f 373 372 431
f 431 372 376
f 431 376 433
f 376 375 433
f 433 375 379
f 433 379 434
f 379 378 434
f 434 378 382
f 434 382 435
f 382 381 435
f 435 381 385
f 435 385 436
f 385 384 436
f 436 384 388
f 436 388 437
f 388 387 437
f 437 387 391
f 437 391 438
f 391 390 438
f 438 390 389
f 438 389 439
f 439 389 344
f 439 344 440
f 344 349 440
f 440 349 348
f 440 348 441
f 348 352 441
f 441 352 351
f 441 351 442
f 351 355 442
f 442 355 354
f 442 354 443
f 443 354 358
f 358 357 443
f 443 357 361
f 443 361 444
f 361 360 444
f 444 360 364
f 444 364 445
f 364 363 445
f 445 363 367
f 445 367 446
f 446 367 366
f 446 366 447
f 447 366 370
f 447 370 432
f 432 370 369
f 432 369 373
f 324 323 448
f 324 448 449
f 449 448 450
f 449 450 451
f 451 450 452
f 451 452 453
f 453 452 454
f 453 454 455
f 455 454 456
f 455 456 457
f 457 456 458
f 457 458 459
f 459 458 460
f 459 460 461
f 461 460 462
f 461 462 463
f 463 462 464
f 463 464 465
f 465 464 466
f 465 466 467
f 467 466 468
f 467 468 469
f 469 468 470
f 469 470 471
f 471 470 472
f 471 472 473
f 474 475 476
f 474 476 477
f 477 476 478
f 477 478 479
f 479 478 480
f 479 480 481
f 481 480 482
f 481 482 483
f 483 482 484
f 483 484 485
f 485 484 486
f 485 486 487
f 487 486 488
f 487 488 489
f 489 488 490
f 489 490 491
f 491 490 492
f 491 492 493
f 493 492 494
f 493 494 495
f 495 494 496
f 495 496 497
f 497 496 498
f 497 498 499
f 499 498 424
f 499 424 425
f 383 380 455
f 362 359 339
f 339 359 473
f 455 380 453
f 453 380 377
f 453 377 451
f 451 377 374
f 451 374 449
f 449 374 371
f 449 371 324
f 324 371 322
f 322 371 368
f 322 368 320
f 320 368 318
f 318 368 365
f 318 365 327
f 359 356 473
f 473 356 353
f 473 353 471
f 471 353 350
f 471 350 469
f 469 350 347
f 455 457 383
f 383 457 459
f 383 459 386
f 386 459 461
f 386 461 345
f 345 461 463
f 345 463 346
f 346 463 465
f 346 465 347
f 347 465 467
f 347 467 469
f 362 339 365
f 365 339 328
f 365 328 327
f 33 343 275
f 275 343 500
f 396 392 393
f 396 393 501
f 501 393 394
f 501 394 502
f 502 394 395
f 502 395 503
f 503 395 275
f 503 275 504
f 504 402 403
f 504 403 503
f 503 403 404
f 503 404 502
f 502 404 405
f 502 405 501
f 501 405 398
f 501 398 399
f 399 400 501
f 501 400 401
f 501 401 396
f 396 401 397
f 396 397 299
f 402 505 1
f 1 505 406
f 506 430 429
f 507 508 509
f 509 508 510
f 509 510 511
f 511 510 506
f 511 506 512
f 512 506 429
f 418 417 429
f 411 513 410
f 410 513 514
f 410 514 414
f 414 514 429
f 414 429 412
f 412 429 413
f 420 319 429
f 429 319 419
f 429 419 418
f 417 416 429
f 429 416 415
f 429 415 413
f 515 443 444
f 447 432 427
f 516 517 474
f 474 517 518
f 474 518 519
f 520 521 522
f 522 521 519
f 522 519 523
f 523 519 518
f 524 525 526
f 526 525 527
f 526 527 528
f 528 527 529
f 528 529 530
f 530 529 531
f 530 531 532
f 532 531 533
f 532 533 534
f 534 533 535
f 534 535 520
f 520 535 536
f 520 536 521
f 515 516 443
f 443 516 474
f 443 474 442
f 442 474 477
f 442 477 441
f 441 477 479
f 441 479 440
f 440 479 481
f 440 481 439
f 433 499 431
f 431 499 425
f 431 425 432
f 432 425 426
f 432 426 427
f 481 483 439
f 439 483 485
f 439 485 438
f 438 485 487
f 438 487 437
f 437 487 489
f 437 489 436
f 436 489 491
f 436 491 435
f 435 491 493
f 435 493 434
f 434 493 495
f 434 495 433
f 433 495 497
f 433 497 499
f 515 510 537
f 537 510 508
f 537 508 538
f 538 508 539
f 538 539 540
f 540 539 541
f 540 541 542
f 542 541 543
f 542 543 524
f 524 543 544
f 524 544 525
f 444 445 515
f 515 445 446
f 515 446 447
f 427 428 447
f 447 428 430
f 447 430 515
f 515 430 506
f 515 506 510
f 519 545 474
f 474 545 475
f 475 472 470
f 475 470 476
f 476 470 468
f 476 468 478
f 478 468 466
f 478 466 480
f 480 466 464
f 480 464 482
f 482 464 462
f 482 462 484
f 484 462 460
f 484 460 486
f 486 460 458
f 486 458 488
f 488 458 456
f 488 456 490
f 490 456 454
f 490 454 492
f 492 454 452
f 492 452 494
f 494 452 450
f 494 450 496
f 496 450 448
f 496 448 498
f 498 448 323
f 498 323 424
f 472 546 473
f 473 546 339
f 339 546 340
f 340 546 547
f 340 547 341
f 341 547 548
f 341 548 342
f 342 548 549
f 342 549 343
f 343 549 500
f 275 500 504
f 504 500 550
f 402 504 505
f 505 504 550
f 551 552 553
f 551 553 554
f 554 553 555
f 554 555 556
f 552 551 557
f 557 551 558
f 557 558 559
f 559 558 514
f 559 514 560
f 406 505 407
f 407 505 561
f 407 561 408
f 408 561 409
f 560 514 562
f 562 514 513
f 562 513 561
f 561 513 411
f 561 411 409
f 526 528 563
f 563 564 526
f 526 564 565
f 526 565 524
f 565 566 524
f 524 566 567
f 524 567 542
f 567 568 542
f 542 568 569
f 542 569 540
f 569 570 540
f 540 570 571
f 540 571 538
f 571 572 538
f 538 572 573
f 538 573 537
f 573 574 537
f 537 574 575
f 537 575 515
f 575 576 515
f 515 576 577
f 515 577 516
f 516 577 578
f 516 578 517
f 578 579 517
f 517 579 580
f 517 580 518
f 580 581 518
f 518 581 582
f 518 582 523
f 582 583 523
f 523 583 584
f 523 584 522
f 522 584 585
f 585 586 522
f 522 586 587
f 522 587 520
f 587 588 520
f 520 588 589
f 520 589 534
f 589 590 534
f 534 590 591
f 534 591 532
f 532 591 592
f 532 592 530
f 530 592 593
f 530 593 528
f 528 593 594
f 528 594 563
f 429 514 558
f 595 507 596
f 596 507 509
f 596 509 597
f 597 509 511
f 597 511 556
f 556 511 512
f 556 512 554
f 554 512 429
f 554 429 551
f 551 429 558
f 508 507 598
f 508 598 539
f 539 598 599
f 539 599 541
f 541 599 600
f 541 600 543
f 543 600 601
f 543 601 544
f 544 601 602
f 544 602 525
f 525 602 603
f 525 603 527
f 527 603 604
f 527 604 529
f 529 604 605
f 529 605 531
f 531 605 606
f 531 606 533
f 533 606 607
f 533 607 535
f 535 607 608
f 535 608 536
f 536 608 609
f 536 609 521
f 521 609 545
f 521 545 519
f 546 472 475
f 610 611 549
f 549 611 612
f 549 612 500
f 613 614 615
f 549 548 610
f 610 548 547
f 610 547 615
f 615 547 546
f 615 546 613
f 613 546 475
f 613 475 616
f 616 475 545
f 616 545 617
f 618 619 595
f 556 555 597
f 597 555 618
f 597 618 596
f 596 618 595
f 616 617 620
f 620 617 621
f 614 613 622
f 622 613 616
f 622 616 620
f 550 500 612
f 550 612 623
f 623 612 611
f 623 611 624
f 624 611 610
f 624 610 625
f 625 610 615
f 625 615 626
f 626 555 553
f 553 552 626
f 626 552 557
f 626 557 625
f 505 550 561
f 561 550 623
f 561 623 562
f 562 623 624
f 562 624 560
f 560 624 625
f 560 625 559
f 559 625 557
f 578 627 628
f 629 580 628
f 628 580 579
f 628 579 578
f 630 582 629
f 629 582 581
f 629 581 580
f 631 584 630
f 630 584 583
f 630 583 582
f 632 586 631
f 631 586 585
f 631 585 584
f 633 588 632
f 632 588 587
f 632 587 586
f 634 590 633
f 633 590 589
f 633 589 588
f 635 592 634
f 634 592 591
f 634 591 590
f 636 594 635
f 635 594 593
f 635 593 592
f 637 564 636
f 636 564 563
f 636 563 594
f 638 566 637
f 637 566 565
f 637 565 564
f 639 568 638
f 638 568 567
f 638 567 566
f 640 570 639
f 639 570 569
f 639 569 568
f 641 572 640
f 640 572 571
f 640 571 570
f 642 574 641
f 641 574 573
f 641 573 572
f 578 577 627
f 627 577 576
f 627 576 642
f 642 576 575
f 642 575 574
f 507 595 643
f 507 643 598
f 598 643 644
f 598 644 599
f 599 644 645
f 599 645 600
f 600 645 646
f 600 646 601
f 601 646 647
f 601 647 602
f 602 647 648
f 602 648 603
f 603 648 649
f 603 649 604
f 604 649 650
f 604 650 605
f 605 650 651
f 605 651 606
f 606 651 652
f 606 652 607
f 607 652 653
f 607 653 608
f 608 653 654
f 608 654 609
f 609 654 617
f 609 617 545
f 615 614 626
f 626 614 622
f 626 622 620
f 620 621 626
f 626 621 655
f 626 655 630
f 640 656 657
f 630 629 626
f 626 629 628
f 626 628 555
f 555 628 627
f 555 627 642
f 640 657 641
f 641 657 619
f 641 619 642
f 642 619 618
f 642 618 555
f 656 640 658
f 658 640 639
f 658 639 659
f 659 639 638
f 659 638 660
f 660 638 637
f 660 637 661
f 661 637 636
f 661 636 662
f 662 636 663
f 663 636 635
f 663 635 664
f 664 635 634
f 664 634 665
f 665 634 633
f 665 633 666
f 666 633 632
f 666 632 655
f 655 632 631
f 655 631 630
f 621 617 654
f 621 654 655
f 655 654 653
f 655 653 666
f 666 653 652
f 666 652 665
f 665 652 651
f 665 651 664
f 664 651 650
f 664 650 663
f 663 650 649
f 663 649 662
f 662 649 648
f 662 648 661
f 661 648 647
f 661 647 660
f 660 647 646
f 660 646 659
f 659 646 645
f 659 645 658
f 658 645 644
f 658 644 656
f 656 644 643
f 656 643 657
f 657 643 595
f 657 595 619

