# https://github.com/mikedh/trimesh

o proximal_phalanx_Link.STL
v 2.41063166 25.50000000 -2.46806669
v 1.10104942 25.50000000 -3.26958609
v -0.00000002 25.50000000 -0.00000005
v 3.24275899 25.50000000 -1.17771661
v 1.86977112 25.50000000 2.89938879
v 2.94260335 25.50000000 1.80099583
v 3.43261671 25.50000000 0.34589356
v -2.41063213 25.50000000 2.46806669
v -1.10104954 25.50000000 3.26958609
v 0.42660803 25.50000000 3.42352247
v -2.94260335 25.50000000 -1.80099583
v -3.43261671 25.50000000 -0.34589359
v -3.24275899 25.50000000 1.17771661
v -0.42660815 25.50000000 -3.42352247
v -1.86977112 25.50000000 -2.89938879
v 0.36654598 25.20000076 -3.63755727
v 1.19679284 25.20000076 -3.55389810
v 1.90852225 25.20000076 -3.11828971
v 2.62025213 25.20000076 -2.68268132
v -0.46370339 25.20000076 -3.72121930
v -1.24803233 25.20000076 -3.43636489
v -2.03236127 25.20000076 -3.15151095
v -2.61542201 25.20000076 -2.55455804
v -3.19848299 25.20000076 -1.95760536
v -3.46479344 25.20000076 -1.16678786
v -3.73110437 25.20000076 -0.37597027
v -3.62791991 25.20000076 0.45207950
v -3.52473831 25.20000076 1.28012669
v -3.07249522 25.20000076 1.98140419
v -2.62025213 25.20000076 2.68268132
v -1.90852261 25.20000076 3.11828971
v -1.19679296 25.20000076 3.55389810
v -0.36654341 25.20000076 3.63755965
v 0.46370336 25.20000076 3.72121906
v 1.24803221 25.20000076 3.43636489
v 2.03236103 25.20000076 3.15151072
v 2.61542201 25.20000076 2.55455804
v 3.19848299 25.20000076 1.95760512
v 3.46479344 25.20000076 1.16678774
v 3.73110437 25.20000076 0.37597016
v 3.62792230 25.20000076 -0.45207694
v 3.52473807 25.20000076 -1.28012669
v 3.07249498 25.20000076 -1.98140395
v 2.15546131 -15.35000038 10.49243164
v 2.50482845 -14.85000038 10.13474178
v 2.23106599 -14.92612076 9.86734962
v 2.01858139 -15.38806057 10.35873795
v 2.15392470 -14.99817085 9.79200363
v 1.90253651 -15.49644661 10.24539280
v 1.99897861 -15.14289379 9.64066315
v 1.89544582 -15.35948563 9.53954029
v 1.82499814 -15.65865803 10.16965961
v 1.84390199 -15.46731663 9.48919582
v 1.78944802 -15.85000038 9.43600845
v 1.79777253 -15.85000038 10.14306641
v 5.29976368 14.85000038 7.27321482
v 5.03072596 14.95077038 7.01043797
v 5.64913082 15.35000038 6.91552353
v 5.47028732 15.41698742 6.74084234
v 4.94207478 14.98397446 6.92384958
v 4.81115150 15.16698742 6.79597282
v 5.33936119 15.59999943 6.61296320
v 4.58438301 15.85000038 6.57448196
v 5.29144192 15.85000038 6.56615877
v 4.65647173 15.47392178 6.64489317
v 4.68022728 15.35000038 6.66809607
v 40.69159317 -9.80000019 36.01445007
v 40.27171707 -9.80000019 35.87305450
v 40.27171707 -13.80000019 35.87305450
v 39.32084274 -13.80000019 35.55284119
v 39.32084274 -9.80000019 35.55284119
v 38.77013016 -13.80000019 35.62146759
v 38.77013016 -9.80000019 35.62146759
v 37.88555908 -13.80000019 35.73169708
v 37.88555908 -9.80000019 35.73169708
v 37.32492828 -13.80000019 36.09323502
v 37.32492828 -9.80000019 36.09323502
v 36.67000961 -13.80000019 36.51558304
v 36.67000961 -9.80000019 36.51558304
v 36.26319885 -13.80000019 37.18025970
v 36.26319885 -9.80000019 37.18025970
v 35.91495895 -13.80000019 37.74924469
v 35.91495895 -9.80000019 37.74924469
v 35.82558441 -13.80000019 38.63616943
v 35.82558441 -9.80000019 38.63616943
v 35.76994324 -13.80000019 39.18834305
v 35.76994324 -9.80000019 39.18834305
v 36.11244965 -13.80000019 40.13141632
v 36.11244965 -9.80000019 40.13141632
v 36.26369476 -13.80000019 40.54784393
v 40.69159317 -13.80000019 36.01445007
v 41.26588440 -13.80000019 36.46147537
v 41.48919678 -9.80000019 36.79349136
v 41.51383972 -13.80000019 36.76500702
v 41.72631073 -9.80000019 37.02508545
v 41.72631073 -13.80000019 37.02508545
v 42.14484787 -9.80000019 38.17750168
v 42.14484787 -13.80000019 38.17750168
v 42.22005463 -9.80000019 38.38459015
v 42.22005463 -13.80000019 38.38459015
v 42.08605194 -9.80000019 39.71444321
v 42.08605194 -13.80000019 39.71444321
v 42.07504654 -9.80000019 39.82368851
v 42.07504654 -13.80000019 39.82368851
v 41.31999207 -9.80000019 41.05735016
v 41.31999207 -13.80000019 41.05735016
v 40.10444641 -9.80000019 41.84123993
v 40.10444641 -13.80000019 41.84123993
v 39.99549103 -9.80000019 41.85481644
v 39.99549103 -13.80000019 41.85481644
v 38.66915894 -9.80000019 42.02008820
v 38.66915894 -13.80000019 42.02008820
v 38.46035767 -9.80000019 41.94977570
v 38.46035767 -13.80000019 41.94977570
v 37.29841232 -9.80000019 41.55848694
v 37.29841232 -13.80000019 41.55848694
v 37.03339767 -9.80000019 41.35219955
v 37.06129456 -13.80000019 41.32688904
v 36.72411728 -9.80000019 41.11145782
v 36.26369476 -9.80000019 40.54784393
v 36.26369476 9.80000019 40.54784393
v 36.11244965 9.80000019 40.13141632
v 36.11244965 13.80000019 40.13141632
v 35.76994324 13.80000019 39.18834305
v 35.76994324 9.80000019 39.18834305
v 35.82558441 13.80000019 38.63616943
v 35.82558441 9.80000019 38.63616943
v 35.91495895 13.80000019 37.74924469
v 35.91495895 9.80000019 37.74924469
v 36.26319885 13.80000019 37.18025970
v 36.26319885 9.80000019 37.18025970
v 36.67000961 13.80000019 36.51558304
v 36.67000961 9.80000019 36.51558304
v 37.32492828 13.80000019 36.09323502
v 37.32492828 9.80000019 36.09323502
v 37.88555908 13.80000019 35.73169708
v 37.88555908 9.80000019 35.73169708
v 38.77013016 13.80000019 35.62146759
v 38.77013016 9.80000019 35.62146759
v 39.32084274 13.80000019 35.55284119
v 39.32084274 9.80000019 35.55284119
v 40.27171707 13.80000019 35.87305450
v 40.27171707 9.80000019 35.87305450
v 40.69159317 13.80000019 36.01445007
v 36.26369476 13.80000019 40.54784393
v 36.72411728 13.80000019 41.11145782
v 37.06129456 9.80000019 41.32688904
v 37.03339767 13.80000019 41.35219955
v 37.29841232 9.80000019 41.55848694
v 37.29841232 13.80000019 41.55848694
v 38.46035767 9.80000019 41.94977570
v 38.46035767 13.80000019 41.94977570
v 38.66915894 9.80000019 42.02008820
v 38.66915894 13.80000019 42.02008820
v 39.99549103 9.80000019 41.85481644
v 39.99549103 13.80000019 41.85481644
v 40.10444641 9.80000019 41.84123993
v 40.10444641 13.80000019 41.84123993
v 41.31999207 9.80000019 41.05735016
v 41.31999207 13.80000019 41.05735016
v 42.07504654 9.80000019 39.82368851
v 42.07504654 13.80000019 39.82368851
v 42.08605194 9.80000019 39.71444321
v 42.08605194 13.80000019 39.71444321
v 42.22005463 9.80000019 38.38459015
v 42.22005463 13.80000019 38.38459015
v 42.14484787 9.80000019 38.17750168
v 42.14484787 13.80000019 38.17750168
v 41.72631073 9.80000019 37.02508545
v 41.72631073 13.80000019 37.02508545
v 41.51383972 9.80000019 36.76500702
v 41.48919678 13.80000019 36.79349136
v 41.26588440 9.80000019 36.46147537
v 40.69159317 9.80000019 36.01445007
v 1.38499892 24.89999962 3.48486423
v 1.27648330 24.89999962 3.50336266
v -0.36605951 24.89999962 3.69228792
v -0.15216248 24.89999962 3.74691200
v -1.66301286 24.89999962 3.36108470
v -2.62025213 24.89999962 2.68268132
v -1.93581963 24.89999962 3.16774416
v 2.68268132 24.89999962 2.62025213
v 3.51650381 24.89999962 1.30257463
v 3.53244281 24.89999962 1.19365358
v 3.74229121 24.89999962 -0.24032976
v 3.68264675 24.89999962 -0.45288154
v 3.32100296 24.89999962 -1.74167860
v 3.10908222 24.89999962 -1.99716890
v 2.32548094 24.89999962 -2.94187689
v 1.92795694 24.89999962 -3.13856578
v 0.92786539 24.89999962 -3.63339496
v 0.37291801 24.89999962 -3.65593314
v -0.63018876 24.89999962 -3.69666862
v -1.25048220 24.89999962 -3.45014453
v -2.07927823 24.89999962 -3.12075520
v -2.62405944 24.89999962 -2.56299448
v -3.16884041 24.89999962 -2.00523353
v -3.47862697 24.89999962 -1.16891253
v -3.71047997 24.89999962 -0.54298747
v -3.64614058 24.89999962 0.45888239
v -3.61054444 24.89999962 1.01314545
v -3.09230828 24.89999962 2.00131035
v -2.88631535 24.89999962 2.39409399
v 1.19365299 20.89999962 -3.53244448
v 1.16891170 -20.89999962 -3.47862744
v 0.54298782 -20.89999962 -3.71048021
v -0.24032980 20.89999962 -3.74229074
v -0.45888245 -20.89999962 -3.64614010
v -0.45288059 20.89999962 -3.68264771
v -1.01314497 -20.89999962 -3.61054635
v -1.74167967 20.89999962 -3.32100224
v -2.00131178 -20.89999962 -3.09230733
v -1.99716890 20.89999962 -3.10908318
v -2.39409566 -20.89999962 -2.88631582
v -2.94187760 20.89999962 -2.32548261
v -3.15523887 -20.89999962 -1.92342162
v -3.13856506 20.89999962 -1.92795837
v -3.36108446 -20.89999962 -1.66301417
v -3.63339686 20.89999962 -0.92786497
v -3.69228864 -20.89999962 -0.36605847
v -3.65593243 20.89999962 -0.37291819
v 2.00523186 -20.89999962 -3.16884017
v 1.30257607 20.89999962 -3.51650262
v 2.62025213 20.89999962 -2.68268132
v -3.69666886 20.89999962 0.63018924
v -3.74691153 -20.89999962 -0.15216243
v -3.45014501 20.89999962 1.25048137
v -3.50336456 -20.89999962 1.27648270
v -3.12075472 20.89999962 2.07927656
v -3.48486280 -20.89999962 1.38500023
v -2.56299329 20.89999962 2.62405825
v -2.62025213 -20.89999962 2.68268132
v -2.00523186 20.89999962 3.16883993
v -1.30257332 -20.89999962 3.51650524
v -1.16891181 20.89999962 3.47862744
v -1.19365311 -20.89999962 3.53244448
v -0.54298794 20.89999962 3.71048021
v 0.24032968 -20.89999962 3.74229074
v 0.45888242 20.89999962 3.64614010
v 0.45288047 -20.89999962 3.68264771
v 1.01314485 20.89999962 3.61054635
v 1.74167955 -20.89999962 3.32100224
v 2.00131178 20.89999962 3.09230733
v 1.99716890 -20.89999962 3.10908318
v 2.39409566 20.89999962 2.88631582
v 2.94187760 -20.89999962 2.32548261
v 3.15523863 20.89999962 1.92342162
v 3.13856506 -20.89999962 1.92795825
v 3.36108422 20.89999962 1.66301405
v 3.63339686 -20.89999962 0.92786491
v 3.69228864 20.89999962 0.36605844
v 3.65593243 -20.89999962 0.37291807
v 3.74691129 20.89999962 0.15216242
v 3.69666886 -20.89999962 -0.63018924
v 3.50336432 20.89999962 -1.27648270
v 3.45014477 -20.89999962 -1.25048149
v 3.48486567 20.89999962 -1.38499773
v 3.12075496 -20.89999962 -2.07927680
v 2.56299329 -20.89999962 -2.62405849
v 5.29144192 -15.85000038 6.56615877
v 4.58438301 -15.85000038 6.57448196
v 4.68022728 -15.35000038 6.66809607
v 5.33936119 -15.59999943 6.61296320
v 4.94207478 -14.98397446 6.92384958
v 5.47028732 -15.41698742 6.74084234
v 5.29976368 -14.85000038 7.27321482
v 5.64913082 -15.35000038 6.91552353
v 5.29144192 -19.40000153 6.56615877
v 4.58438301 -19.40000153 6.57448196
v 18.35242271 -15.35000038 19.32319450
v 18.00305557 -14.85000038 19.68088531
v 19.52060890 -13.97132015 21.16312218
v 20.12290001 -14.32487392 21.05247307
v 18.82434845 -14.62163830 20.48306465
v 19.31059647 -15.08357811 20.25907135
v 21.72724533 -12.08223343 22.61948013
v 21.12495232 -11.72867966 22.73013115
v 21.75354385 -9.60735989 23.34409523
v 22.46059990 -9.60735989 23.33577156
v 21.59017944 -10.75540924 23.18453026
v 22.27000809 -10.94675159 23.14961243
v 22.46059990 9.60735989 23.33577156
v 21.75354385 9.60735989 23.34409523
v 21.12495232 11.72867966 22.73013115
v 21.72724533 12.08223343 22.61948013
v 21.59017944 10.75540924 23.18453026
v 22.27000809 10.94675159 23.14961243
v 20.12290001 14.32487392 21.05247307
v 19.52060890 13.97132015 21.16312218
v 18.00305557 14.85000038 19.68088531
v 18.35242271 15.35000038 19.32319450
v 18.82434845 14.62163830 20.48306465
v 19.31059647 15.08357811 20.25907135
v 5.29144192 19.40000153 6.56615877
v 4.58438301 19.40000153 6.57448196
v 1.78944802 15.85000038 9.43600845
v 1.84390199 15.46731663 9.48919582
v 1.99897861 15.14289379 9.64066315
v 2.23106599 14.92612076 9.86734962
v 2.50482845 14.85000038 10.13474178
v 3.86900282 -20.40000153 5.87574959
v 4.13808823 -20.32656288 6.13857317
v 4.21479750 -20.40000153 6.10270405
v 4.14223003 -20.32274246 6.14261818
v 4.90562630 -20.40000153 6.27172565
v 4.37246227 -20.11042976 6.36749268
v 5.01818800 -20.40000153 6.29926443
v 4.37431192 -20.10659599 6.36929893
v 5.20878649 -19.97728920 6.48542738
v 4.52928162 -19.78485870 6.52066231
v 4.52960682 -19.78259277 6.52097988
v 1.78944802 -19.40000153 9.43600845
v 1.73499393 -19.78268242 9.38282204
v 1.57991731 -20.10710716 9.23135376
v 1.34783006 -20.32387924 9.00466728
v 1.07406747 -20.40000153 8.73727608
v -4.24649906 -20.40000153 -0.17245023
v -3.94951320 -20.40000153 1.56966484
v -3.80922723 -20.40000153 -1.88474762
v -2.71330714 -20.40000153 -3.27115679
v -1.14823103 -20.40000153 -4.09195232
v 0.61538696 -20.40000153 -4.20521069
v 2.27259731 -20.40000153 -3.59135103
v 3.53685427 -20.40000153 -2.35651469
v 4.18955803 -20.40000153 -0.71421522
v 4.11784983 -20.40000153 1.05158019
v 3.33412647 -20.40000153 2.63554573
v 1.97390163 -20.40000153 3.76380086
v 0.27237311 -20.40000153 4.24126196
v -1.47625065 -20.40000153 3.98537135
v -2.96961880 -20.40000153 3.04037213
v 35.27378082 -14.30000019 39.25016785
v 35.44110489 -14.30000019 37.58967209
v 35.84349060 -14.30000019 40.81882477
v 37.03739548 -14.30000019 41.98495102
v 38.61903000 -14.30000019 42.51757431
v 40.27512741 -14.30000019 42.31120300
v 41.67768097 -14.30000019 41.40671539
v 42.54889679 -14.30000019 39.98326111
v 42.71622086 -14.30000019 38.32276154
v 42.14651108 -14.30000019 36.75410461
v 40.95260239 -14.30000019 35.58798599
v 39.37097168 -14.30000019 35.05536270
v 37.71487427 -14.30000019 35.26172638
v 36.31232071 -14.30000019 36.16621399
v 30.40471458 -8.30000019 37.38536453
v 30.45917130 -8.68268299 37.43855286
v 33.54901886 -8.30000019 34.16614532
v 33.64486313 -8.80000019 34.25975800
v 30.51071358 -8.79051399 37.48889542
v 30.61424637 -9.00710678 37.59001923
v 33.90670776 -9.16602516 34.51551437
v 31.12009811 -9.30000019 38.08409882
v 34.26440048 -9.30000019 34.86487961
v 30.84633255 -9.22387886 37.81670380
v 30.76919174 -9.15182972 37.74135971
v 38.61903000 -9.30000019 42.51757431
v 40.27512741 -9.30000019 42.31120300
v 37.03739548 -9.30000019 41.98495102
v 35.84349060 -9.30000019 40.81882477
v 35.27378082 -9.30000019 39.25016785
v 35.44110489 -9.30000019 37.58967209
v 36.31232071 -9.30000019 36.16621399
v 37.71487427 -9.30000019 35.26172638
v 39.37097168 -9.30000019 35.05536270
v 40.95260239 -9.30000019 35.58798599
v 42.14651108 -9.30000019 36.75410461
v 42.71622086 -9.30000019 38.32276154
v 42.54889679 -9.30000019 39.98326111
v 41.67768097 -9.30000019 41.40671539
v 29.90551758 -8.30000019 25.01601410
v 27.11058235 -8.30000019 27.87754059
v 30.00136185 -8.80000019 25.10962677
v 27.20642471 -8.80000019 27.97115326
v 30.26321030 -9.16602516 25.36538124
v 27.46827316 -9.16602516 28.22690773
v 30.62089920 -9.30000019 25.71474838
v 27.82596397 -9.30000019 28.57627487
v 33.64486313 8.80000019 34.25975800
v 27.82596397 9.30000019 28.57627487
v 33.90670776 9.16602516 34.51551437
v 34.26440048 9.30000019 34.86487961
v 27.11058235 8.30000019 27.87754059
v 33.54901886 8.30000019 34.16614532
v 27.16503906 8.68268299 27.93072891
v 27.32011223 9.00710678 28.08219528
v 27.55219841 9.22387886 28.30888176
v 30.40471458 8.30000019 37.38536453
v 30.50055885 8.80000019 37.47897720
v 30.76240540 9.16602516 37.73473358
v 31.12009811 9.30000019 38.08409882
v 30.62089920 9.30000019 25.71474838
v 30.35186005 9.19923019 25.45196915
v 30.26321030 9.16602516 25.36538124
v 30.00136185 8.80000019 25.10962677
v 30.13228416 8.98301220 25.23750496
v 29.90551758 8.30000019 25.01601410
v 29.97760773 8.67607784 25.08642769
v 35.27378082 9.30000019 39.25016785
v 35.44110489 9.30000019 37.58967209
v 35.84349060 9.30000019 40.81882477
v 37.03739548 9.30000019 41.98495102
v 38.61903000 9.30000019 42.51757431
v 40.27512741 9.30000019 42.31120300
v 41.67768097 9.30000019 41.40671539
v 42.54889679 9.30000019 39.98326111
v 42.71622086 9.30000019 38.32276154
v 42.14651108 9.30000019 36.75410461
v 40.95260239 9.30000019 35.58798599
v 39.37097168 9.30000019 35.05536270
v 37.71487427 9.30000019 35.26172638
v 36.31232071 9.30000019 36.16621399
v 38.61903000 14.30000019 42.51757431
v 40.27512741 14.30000019 42.31120300
v 37.03739548 14.30000019 41.98495102
v 35.84349060 14.30000019 40.81882477
v 35.27378082 14.30000019 39.25016785
v 35.44110489 14.30000019 37.58967209
v 36.31232071 14.30000019 36.16621399
v 37.71487427 14.30000019 35.26172638
v 39.37097168 14.30000019 35.05536270
v 40.95260239 14.30000019 35.58798599
v 42.14651108 14.30000019 36.75410461
v 42.71622086 14.30000019 38.32276154
v 42.54889679 14.30000019 39.98326111
v 41.67768097 14.30000019 41.40671539
v 29.48645782 14.88578606 24.60670662
v 23.54721832 14.88578606 30.68745041
v 29.95063019 14.45224094 25.06007576
v 24.01139259 14.45224094 31.14082146
v 30.49815941 14.30000019 25.59486389
v 24.55892181 14.30000019 31.67561150
v 16.44460487 24.81421280 23.75012207
v 22.38384247 24.81421280 17.66937828
v 21.91967010 25.24775887 17.21600723
v 15.98043156 25.24775887 23.29675102
v 21.37213898 25.39999962 16.68121910
v 15.43290234 25.39999962 22.76196289
v -0.17245127 25.39999962 4.24649954
v 1.56966543 25.39999962 3.94951272
v -1.88474953 25.39999962 3.80922794
v -3.27115560 25.39999962 2.71330786
v -4.09195042 25.39999962 1.14823091
v -4.20521212 25.39999962 -0.61538732
v -3.59135032 25.39999962 -2.27259588
v -2.35651326 25.39999962 -3.53685379
v -0.71421564 25.39999962 -4.18955946
v 1.05158019 25.39999962 -4.11784792
v 2.63554668 25.39999962 -3.33412552
v 3.76380157 25.39999962 -1.97390378
v 4.24126244 25.39999962 -0.27237415
v 3.98537087 25.39999962 1.47625124
v 3.04037309 25.39999962 2.96961975
v 4.21479750 20.40000153 6.10270405
v 4.13808823 20.32656288 6.13857317
v 3.86900282 20.40000153 5.87574959
v 5.20878649 19.97728920 6.48542738
v 4.52960682 19.78259277 6.52097988
v 4.52928162 19.78485870 6.52066231
v 5.01818800 20.40000153 6.29926443
v 4.37431192 20.10659599 6.36929893
v 4.90562630 20.40000153 6.27172565
v 4.37246227 20.11042976 6.36749268
v 4.14223003 20.32274246 6.14261818
v 1.07406747 20.40000153 8.73727608
v 1.34783006 20.32387924 9.00466728
v 1.57991731 20.10710716 9.23135376
v 1.73499393 19.78268242 9.38282204
v 1.78944802 19.40000153 9.43600845
v -0.27237323 20.40000153 -4.24126196
v 1.47625065 20.40000153 -3.98537183
v -1.97390187 20.40000153 -3.76380086
v -3.33412647 20.40000153 -2.63554573
v -4.11784983 20.40000153 -1.05158031
v -4.18955803 20.40000153 0.71421504
v -3.53685427 20.40000153 2.35651469
v -2.27259731 20.40000153 3.59135079
v -0.61538690 20.40000153 4.20521069
v 1.14823091 20.40000153 4.09195232
v 2.71330714 20.40000153 3.27115655
v 3.80922723 20.40000153 1.88474751
v 4.24649906 20.40000153 0.17245021
v 3.94951367 20.40000153 -1.56966496
v 2.96961880 20.40000153 -3.04037213
v 18.93471527 19.52132034 19.89193726
v 18.93471527 -19.52132034 19.89193726
v 23.62046432 -12.97132015 24.46864319
v 24.08569145 -11.99804974 24.92304230
v 24.24905586 -10.85000038 25.08260727
v 24.24905586 10.85000038 25.08260727
v 24.08569145 11.99804974 24.92304230
v 23.62046432 12.97132015 24.46864319
v 17.41716003 20.40000153 18.40969658
v 17.41716003 -20.40000153 18.40969658
v 18.23845482 -20.17163849 19.21187973
v 18.23845482 20.17163849 19.21187973
v 35.50133133 14.30000019 42.36337662
v 35.15196228 13.80000019 42.72106552
v 36.85752106 13.80000019 43.85412598
v 37.05183411 14.30000019 43.39342880
v 38.85933304 13.80000019 44.28479385
v 38.87166595 14.30000019 43.78494644
v 40.87995148 13.80000019 43.95337677
v 40.70859528 14.30000019 43.48365402
v 42.63931274 13.80000019 42.90581131
v 42.30801010 14.30000019 42.53132629
v 43.89355850 13.80000019 41.28729248
v 43.44823456 14.30000019 41.05994415
v 44.46884918 13.80000019 39.32215118
v 43.97122955 14.30000019 39.27345276
v 44.28544998 13.80000019 37.28276443
v 43.80450058 14.30000019 37.41946411
v 43.36877823 13.80000019 35.45179367
v 42.97116470 14.30000019 35.75494385
v 41.84589005 13.80000019 34.08301926
v 41.58671951 14.30000019 34.51060486
v 39.92786026 13.80000019 33.36615372
v 39.84305191 14.30000019 33.85890961
v 39.84305191 9.30000019 33.85890961
v 39.92786026 9.80000019 33.36615372
v 41.84589005 9.80000019 34.08301926
v 41.58671951 9.30000019 34.51060486
v 43.36877823 9.80000019 35.45179367
v 42.97116470 9.30000019 35.75494385
v 44.28544998 9.80000019 37.28276443
v 43.80450058 9.30000019 37.41946411
v 44.46884918 9.80000019 39.32215118
v 43.97122955 9.30000019 39.27345276
v 43.89355850 9.80000019 41.28729248
v 43.44823456 9.30000019 41.05994415
v 42.63931274 9.80000019 42.90581131
v 42.30801010 9.30000019 42.53132629
v 40.87995148 9.80000019 43.95337677
v 40.70859528 9.30000019 43.48365402
v 38.85933304 9.80000019 44.28479385
v 38.87166595 9.30000019 43.78494644
v 36.85752106 9.80000019 43.85412598
v 37.05183411 9.30000019 43.39342880
v 35.15196228 9.80000019 42.72106552
v 35.50133133 9.30000019 42.36337662
v 39.84305191 -14.30000019 33.85890961
v 39.92786026 -13.80000019 33.36615372
v 41.84589005 -13.80000019 34.08301926
v 41.58671951 -14.30000019 34.51060486
v 43.36877823 -13.80000019 35.45179367
v 42.97116470 -14.30000019 35.75494385
v 44.28544998 -13.80000019 37.28276443
v 43.80450058 -14.30000019 37.41946411
v 44.46884918 -13.80000019 39.32215118
v 43.97122955 -14.30000019 39.27345276
v 43.89355850 -13.80000019 41.28729248
v 43.44823456 -14.30000019 41.05994415
v 42.63931274 -13.80000019 42.90581131
v 42.30801010 -14.30000019 42.53132629
v 40.87995148 -13.80000019 43.95337677
v 40.70859528 -14.30000019 43.48365402
v 38.85933304 -13.80000019 44.28479385
v 38.87166595 -14.30000019 43.78494644
v 36.85752106 -13.80000019 43.85412598
v 37.05183411 -14.30000019 43.39342880
v 35.15196228 -13.80000019 42.72106552
v 35.50133133 -14.30000019 42.36337662
v 35.50133133 -9.30000019 42.36337662
v 35.15196228 -9.80000019 42.72106552
v 36.85752106 -9.80000019 43.85412598
v 37.05183411 -9.30000019 43.39342880
v 38.85933304 -9.80000019 44.28479385
v 38.87166595 -9.30000019 43.78494644
v 40.87995148 -9.80000019 43.95337677
v 40.70859528 -9.30000019 43.48365402
v 42.63931274 -9.80000019 42.90581131
v 42.30801010 -9.30000019 42.53132629
v 43.89355850 -9.80000019 41.28729248
v 43.44823456 -9.30000019 41.05994415
v 44.46884918 -9.80000019 39.32215118
v 43.97122955 -9.30000019 39.27345276
v 44.28544998 -9.80000019 37.28276443
v 43.80450058 -9.30000019 37.41946411
v 43.36877823 -9.80000019 35.45179367
v 42.97116470 -9.30000019 35.75494385
v 41.84589005 -9.80000019 34.08301926
v 41.58671951 -9.30000019 34.51060486
v 39.92786026 -9.80000019 33.36615372
v 39.84305191 -9.30000019 33.85890961
v 15.20811939 -14.85000038 22.54241180
v 16.72567177 -13.97132015 24.02465057
v 16.02941322 -14.62163830 23.34459305
v 18.33001709 -11.72867966 25.59165764
v 18.95860863 -9.60735989 26.20562172
v 18.79524231 -10.75540924 26.04605865
v 18.95860863 9.60735989 26.20562172
v 18.79524231 10.75540924 26.04605865
v 18.33001709 11.72867966 25.59165764
v 16.72567177 13.97132015 24.02465057
v 16.02941322 14.62163830 23.34459305
v 15.20811939 14.85000038 22.54241180
v 1.79777253 15.85000038 10.14306641
v 1.82499814 15.65865803 10.16965961
v 1.90253651 15.49644661 10.24539280
v 2.01858139 15.38806057 10.35873795
v 2.15546131 15.35000038 10.49243164
v 5.49693537 25.39999962 -0.18357627
v 5.99665594 24.89999962 -0.20026544
v 5.55305481 24.89999962 -2.27235031
v 5.09030247 25.39999962 -2.08298612
v 4.41681719 24.89999962 -4.06100035
v 4.04874802 25.39999962 -3.72258496
v 2.72966480 24.89999962 -5.34311962
v 2.50219035 25.39999962 -4.89786196
v 0.70203608 24.89999962 -5.95878744
v 0.64353371 25.39999962 -5.46222115
v -1.41315591 24.89999962 -5.83120871
v -1.29539204 25.39999962 -5.34527349
v -3.35208297 24.89999962 -4.97629642
v -3.07274365 25.39999962 -4.56160593
v -4.87290239 24.89999962 -3.50068617
v -4.46682787 25.39999962 -3.20896339
v -5.78592110 24.89999962 -1.58843398
v -5.30376101 25.39999962 -1.45606434
v -5.97725487 24.89999962 0.52194715
v -5.47914886 25.39999962 0.47845230
v -5.42304039 24.89999962 2.56722379
v -4.97111797 25.39999962 2.35329032
v -4.19240332 24.89999962 4.29229021
v -3.84303617 25.39999962 3.93459892
v -3.84303617 20.40000153 3.93459892
v -4.19240332 20.89999962 4.29229021
v -5.42304039 20.89999962 2.56722379
v -4.97111797 20.40000153 2.35329032
v -5.97725487 20.89999962 0.52194715
v -5.47914886 20.40000153 0.47845230
v -5.78592110 20.89999962 -1.58843398
v -5.30376101 20.40000153 -1.45606434
v -4.87290239 20.89999962 -3.50068617
v -4.46682787 20.40000153 -3.20896339
v -3.35208297 20.89999962 -4.97629642
v -3.07274365 20.40000153 -4.56160593
v -1.41315591 20.89999962 -5.83120871
v -1.29539204 20.40000153 -5.34527349
v 0.70203608 20.89999962 -5.95878744
v 0.64353371 20.40000153 -5.46222115
v 2.72966480 20.89999962 -5.34311962
v 2.50219035 20.40000153 -4.89786196
v 4.41681719 20.89999962 -4.06100035
v 4.04874802 20.40000153 -3.72258496
v 5.55305481 20.89999962 -2.27235031
v 5.09030247 20.40000153 -2.08298612
v 5.99665594 20.89999962 -0.20026544
v 5.49693537 20.40000153 -0.18357627
v 26.41539955 12.97132015 21.60711670
v 21.72965050 19.52132034 17.03040886
v 27.04399300 10.85000038 22.22107887
v 26.88062477 11.99804974 22.06151581
v 27.04399300 -10.85000038 22.22107887
v 26.41539955 -12.97132015 21.60711670
v 26.88062477 -11.99804974 22.06151581
v 21.72965050 -19.52132034 17.03040886
v 20.21209526 -20.40000153 15.54817009
v 21.03339005 -20.17163849 16.35035133
v 4.04874802 -20.40000153 -3.72258496
v 2.50219035 -20.40000153 -4.89786196
v 0.64353371 -20.40000153 -5.46222115
v -1.29539204 -20.40000153 -5.34527349
v -3.07274365 -20.40000153 -4.56160593
v -3.84303617 -20.40000153 3.93459892
v -4.97111797 -20.40000153 2.35329032
v -5.47914886 -20.40000153 0.47845230
v -5.30376101 -20.40000153 -1.45606434
v -4.46682787 -20.40000153 -3.20896339
v 5.79246855 -20.40000153 1.11165345
v 5.49693537 -20.40000153 -0.18357627
v 5.09030247 -20.40000153 -2.08298612
v 6.54941607 -20.40000153 2.20343757
v 30.49815941 -14.30000019 25.59486389
v 24.55892181 -14.30000019 31.67561150
v 37.99112320 -14.30000019 32.91345596
v 38.84525681 -14.30000019 33.52688599
v 38.34048843 -9.80000019 32.55576706
v 37.99112320 -9.30000019 32.91345596
v 39.07260132 -9.80000019 33.08156204
v 38.84525681 -9.30000019 33.52688599
v 39.07260132 -13.80000019 33.08156204
v 38.34048843 -13.80000019 32.55576706
v 37.99112320 9.30000019 32.91345596
v 38.84525681 9.30000019 33.52688599
v 39.07260132 9.80000019 33.08156204
v 38.34048843 9.80000019 32.55576706
v 38.34048843 13.80000019 32.55576706
v 37.99112320 14.30000019 32.91345596
v 39.07260132 13.80000019 33.08156204
v 38.84525681 14.30000019 33.52688599
v 5.79246855 25.39999962 1.11165345
v 6.54941607 25.39999962 2.20343757
v 6.89878321 20.89999962 1.84574664
v 6.54941607 20.40000153 2.20343757
v 6.24997091 20.89999962 0.90993178
v 5.79246855 20.40000153 1.11165345
v 6.24997091 24.89999962 0.90993178
v 6.89878321 24.89999962 1.84574664
v 20.21209526 20.40000153 15.54817009
v 21.03339005 20.17163849 16.35035133
v 23.54721832 -14.88578606 30.68745041
v 29.48645782 -14.88578606 24.60670662
v 24.01139259 -14.45224094 31.14082146
v 29.95063019 -14.45224094 25.06007576
v 15.08353519 24.89999962 23.11965370
v 15.84231091 24.46066093 23.86077309
v 15.49418163 24.78581810 23.52074432
v 22.94492722 14.53223228 30.79810143
v 23.52514267 13.99030113 31.36481667
v 24.20955467 13.80000019 32.03329849
v 30.77073097 9.80000019 38.44178772
v 30.23419380 9.59903812 37.91773605
v 29.84142113 9.05000019 37.53410721
v 29.69765854 8.30000019 37.39368820
v 29.69765854 -8.30000019 37.39368820
v 30.36008453 -9.68581867 38.04069901
v 30.77073097 -9.80000019 38.44178772
v 30.01195335 -9.36065960 37.70066833
v 29.77934074 -8.87402534 37.47346878
v 24.20955467 -13.80000019 32.03329849
v 23.52514267 -13.99030113 31.36481667
v 22.94492722 -14.53223228 30.79810143
v 15.84231091 -24.46066093 23.86077309
v 16.44460487 -24.81421280 23.75012207
v 0.72470045 -20.89999962 9.09496689
v -4.19240332 -20.89999962 4.29229021
v 1.13534570 -20.78582001 9.49605560
v 1.48347521 -20.46065903 9.83608437
v 1.71609008 -19.97402573 10.06328583
v 1.79777253 -19.40000153 10.14306641
v 14.85875225 -15.35000038 22.90010262
v 15.81692886 -15.08357811 23.83598137
v 16.62923241 -14.32487392 24.62938118
v 18.23357773 -12.08223343 26.19638824
v 18.77633858 -10.94675159 26.72652245
v 18.96693230 -9.60735989 26.91267967
v 18.96693230 9.60735989 26.91267967
v 18.77633858 10.94675159 26.72652245
v 18.23357773 12.08223343 26.19638824
v 16.62923241 14.32487392 24.62938118
v 15.81692886 15.08357811 23.83598137
v 14.85875225 15.35000038 22.90010262
v 1.79777253 19.40000153 10.14306641
v 1.71609008 19.97402573 10.06328583
v 1.48347521 20.46065903 9.83608437
v 1.13534570 20.78582001 9.49605560
v 0.72470045 20.89999962 9.09496689
v 5.99665594 -20.89999962 -0.20026544
v 5.55305481 -20.89999962 -2.27235031
v 4.41681719 -20.89999962 -4.06100035
v 2.72966480 -20.89999962 -5.34311962
v 0.70203608 -20.89999962 -5.95878744
v -1.41315591 -20.89999962 -5.83120871
v -3.35208297 -20.89999962 -4.97629642
v -4.87290239 -20.89999962 -3.50068617
v -5.78592110 -20.89999962 -1.58843398
v -5.97725487 -20.89999962 0.52194715
v -5.42304039 -20.89999962 2.56722379
v 6.24997091 -20.89999962 0.90993178
v 6.89878321 -20.89999962 1.84574664
v 22.33194160 19.87487411 16.91975784
v 27.01769447 13.32487392 21.49646568
v 27.56045532 12.18939209 22.02659607
v 27.75104904 10.85000038 22.21275520
v 27.75104904 -10.85000038 22.21275520
v 27.56045532 -12.18939209 22.02659607
v 27.01769447 -13.32487392 21.49646568
v 22.33194160 -19.87487411 16.91975784
v 21.51963997 -20.63357925 16.12635803
v 20.56146240 -20.89999962 15.19047928
v 22.38384247 -24.81421280 17.66937828
v 22.48028374 -24.46066093 17.06464577
v 29.58289909 -14.53223228 24.00197411
v 30.16311455 -13.99030113 24.56868935
v 30.84752655 -13.80000019 25.23717308
v 30.97026634 -9.80000019 25.35705757
v 30.43373108 -9.59903812 24.83300591
v 30.04095840 -9.05000019 24.44937515
v 29.89719391 -8.30000019 24.30895805
v 29.89719391 8.30000019 24.30895805
v 30.43373108 9.59903812 24.83300591
v 30.97026634 9.80000019 25.35705757
v 30.04095840 9.05000019 24.44937515
v 30.84752655 13.80000019 25.23717308
v 30.16311455 13.99030113 24.56868935
v 29.58289909 14.53223228 24.00197411
v 22.48028374 24.46066093 17.06464577
v 21.72150612 24.89999962 16.32352638
v 22.13215446 24.78581810 16.72461891
v 20.56146240 20.89999962 15.19047928
v 21.51963997 20.63357925 16.12635803
v 21.91967010 -25.24775887 17.21600723
v 22.13215446 -24.78581810 16.72461891
v 21.37213898 -25.39999962 16.68121910
v 21.72150612 -24.89999962 16.32352638
v 15.08353519 -24.89999962 23.11965370
v 15.43290234 -25.39999962 22.76196289
v 15.98043156 -25.24775887 23.29675102
v 15.49418163 -24.78581810 23.52074432
v -4.19240332 -24.89999962 4.29229021
v 23.52514267 -13.99030209 31.36481667
v -5.42304039 -24.89999962 2.56722379
v -5.97725487 -24.89999962 0.52194715
v -5.78592110 -24.89999962 -1.58843398
v -4.87290239 -24.89999962 -3.50068617
v -3.35208297 -24.89999962 -4.97629642
v -1.41315591 -24.89999962 -5.83120871
v 0.70203608 -24.89999962 -5.95878744
v 2.72966480 -24.89999962 -5.34311962
v 4.41681719 -24.89999962 -4.06100035
v 5.55305481 -24.89999962 -2.27235031
v 5.99665594 -24.89999962 -0.20026544
v 6.24997091 -24.89999962 0.90993178
v 6.89878321 -24.89999962 1.84574664
v 30.16311455 13.99030209 24.56868935
v -3.84303617 -25.39999962 3.93459892
v -4.97111797 -25.39999962 2.35329032
v -5.47914886 -25.39999962 0.47845230
v -5.30376101 -25.39999962 -1.45606434
v -4.46682787 -25.39999962 -3.20896339
v -3.07274365 -25.39999962 -4.56160593
v -1.29539204 -25.39999962 -5.34527349
v 0.64353371 -25.39999962 -5.46222115
v 2.50219035 -25.39999962 -4.89786196
v 4.04874802 -25.39999962 -3.72258496
v 5.09030247 -25.39999962 -2.08298612
v 5.49693537 -25.39999962 -0.18357627
v 6.54941607 -25.39999962 2.20343757
v 5.79246855 -25.39999962 1.11165345
v 3.59135032 -25.39999962 2.27259588
v 4.20521212 -25.39999962 0.61538732
v -3.04037309 -25.39999962 -2.96961975
v -1.56966555 -25.39999962 -3.94951272
v 0.17245115 -25.39999962 -4.24649954
v 1.88474965 -25.39999962 -3.80922818
v 3.27115560 -25.39999962 -2.71330786
v 4.09195042 -25.39999962 -1.14823091
v -1.05158031 -25.39999962 4.11784792
v -2.63554668 -25.39999962 3.33412528
v -3.76380157 -25.39999962 1.97390378
v -4.24126291 -25.39999962 0.27237415
v -3.98537135 -25.39999962 -1.47625124
v 0.71421552 -25.39999962 4.18955946
v 2.35651326 -25.39999962 3.53685379
v -3.51650405 -24.89999962 -1.30257463
v -3.65375829 -24.89999962 -0.36465195
v -3.74229145 -24.89999962 0.24032974
v -3.45593309 -24.89999962 1.26082194
v -3.32100296 -24.89999962 1.74167836
v -2.62025213 -24.89999962 2.68268132
v -2.32548094 -24.89999962 2.94187689
v -1.17550457 -24.89999962 3.51086712
v -0.92786551 -24.89999962 3.63339496
v 0.46497440 -24.89999962 3.68996000
v 0.63018876 -24.89999962 3.69666839
v 2.02820373 -24.89999962 3.14105201
v 2.07927823 -24.89999962 3.12075520
v 3.16884041 -24.89999962 2.00523353
v 3.18792963 -24.89999962 1.95369518
v 3.71047997 -24.89999962 0.54298741
v 3.69988394 -24.89999962 0.37797678
v 3.61054420 -24.89999962 -1.01314545
v 3.48222041 -24.89999962 -1.25783134
v 2.88631511 -24.89999962 -2.39409399
v 2.58217430 -24.89999962 -2.63451028
v 1.66301298 -24.89999962 -3.36108494
v 1.17911303 -24.89999962 -3.48465753
v 0.15216236 -24.89999962 -3.74691200
v -0.45056733 -24.89999962 -3.64416099
v -1.38499892 -24.89999962 -3.48486423
v -1.98715532 -24.89999962 -3.08366251
v -2.68268132 -24.89999962 -2.62025237
v -3.12958932 -24.89999962 -1.91400909
v -3.52473831 -25.20000076 1.28012669
v -2.62025213 -25.20000076 2.68268132
v -3.73110437 -25.20000076 -0.37597027
v -3.19848299 -25.20000076 -1.95760536
v -2.03236127 -25.20000076 -3.15151095
v -0.46370339 -25.20000076 -3.72121930
v 1.19679284 -25.20000076 -3.55389810
v 2.62025213 -25.20000076 -2.68268132
v 3.52473807 -25.20000076 -1.28012669
v 3.73110437 -25.20000076 0.37597016
v 3.19848299 -25.20000076 1.95760512
v 2.03236103 -25.20000076 3.15151072
v 0.46370336 -25.20000076 3.72121906
v -1.19679296 -25.20000076 3.55389810
v -2.41063213 -25.50000000 2.46806669
v -3.24275899 -25.50000000 1.17771661
v -0.00000002 -25.50000000 -0.00000005
v -1.10104954 -25.50000000 3.26958609
v 2.94260335 -25.50000000 1.80099583
v 1.86977112 -25.50000000 2.89938879
v 0.42660803 -25.50000000 3.42352247
v 2.41063166 -25.50000000 -2.46806669
v 3.24275899 -25.50000000 -1.17771661
v 3.43261671 -25.50000000 0.34589356
v -1.86977112 -25.50000000 -2.89938879
v -0.42660815 -25.50000000 -3.42352247
v 1.10104942 -25.50000000 -3.26958609
v -3.43261671 -25.50000000 -0.34589359
v -2.94260335 -25.50000000 -1.80099583
f 1 2 3
f 1 3 4
f 5 6 3
f 3 6 7
f 3 7 4
f 8 9 3
f 3 9 10
f 3 10 5
f 11 12 3
f 3 12 13
f 3 13 8
f 2 14 3
f 3 14 15
f 3 15 11
f 16 14 17
f 17 14 2
f 17 2 18
f 18 2 1
f 18 1 19
f 16 20 14
f 14 20 21
f 14 21 15
f 21 22 15
f 15 22 23
f 15 23 11
f 23 24 11
f 11 24 25
f 11 25 12
f 25 26 12
f 12 26 27
f 12 27 13
f 13 27 28
f 13 28 8
f 8 28 29
f 29 30 8
f 8 30 31
f 8 31 9
f 9 31 32
f 9 32 10
f 10 32 33
f 33 34 10
f 10 34 35
f 10 35 5
f 5 35 36
f 5 36 6
f 36 37 6
f 6 37 38
f 6 38 7
f 7 38 39
f 39 40 7
f 7 40 41
f 7 41 4
f 4 41 42
f 4 42 1
f 1 42 43
f 1 43 19
f 44 45 46
f 44 46 47
f 47 46 48
f 47 48 49
f 48 50 49
f 49 50 51
f 49 51 52
f 51 53 52
f 52 53 54
f 52 54 55
f 56 57 58
f 58 57 59
f 57 60 59
f 59 60 61
f 59 61 62
f 63 64 65
f 65 64 62
f 65 62 66
f 66 62 61
f 67 68 69
f 69 68 70
f 70 68 71
f 70 71 72
f 72 71 73
f 72 73 74
f 74 73 75
f 74 75 76
f 76 75 77
f 76 77 78
f 78 77 79
f 78 79 80
f 80 79 81
f 80 81 82
f 82 81 83
f 82 83 84
f 84 83 85
f 84 85 86
f 86 85 87
f 86 87 88
f 88 87 89
f 88 89 90
f 69 91 67
f 67 91 92
f 67 92 93
f 93 92 94
f 93 94 95
f 95 94 96
f 95 96 97
f 97 96 98
f 97 98 99
f 99 98 100
f 99 100 101
f 101 100 102
f 101 102 103
f 103 102 104
f 103 104 105
f 105 104 106
f 105 106 107
f 107 106 108
f 107 108 109
f 109 108 110
f 109 110 111
f 111 110 112
f 111 112 113
f 113 112 114
f 113 114 115
f 115 114 116
f 115 116 117
f 117 116 118
f 117 118 119
f 119 118 90
f 119 90 120
f 120 90 89
f 121 122 123
f 123 122 124
f 124 122 125
f 124 125 126
f 126 125 127
f 126 127 128
f 128 127 129
f 128 129 130
f 130 129 131
f 130 131 132
f 132 131 133
f 132 133 134
f 134 133 135
f 134 135 136
f 136 135 137
f 136 137 138
f 138 137 139
f 138 139 140
f 140 139 141
f 140 141 142
f 142 141 143
f 142 143 144
f 123 145 121
f 121 145 146
f 121 146 147
f 147 146 148
f 147 148 149
f 149 148 150
f 149 150 151
f 151 150 152
f 151 152 153
f 153 152 154
f 153 154 155
f 155 154 156
f 155 156 157
f 157 156 158
f 157 158 159
f 159 158 160
f 159 160 161
f 161 160 162
f 161 162 163
f 163 162 164
f 163 164 165
f 165 164 166
f 165 166 167
f 167 166 168
f 167 168 169
f 169 168 170
f 169 170 171
f 171 170 172
f 171 172 173
f 173 172 144
f 173 144 174
f 174 144 143
f 36 35 175
f 175 35 176
f 33 177 178
f 176 35 178
f 178 35 34
f 178 34 33
f 177 33 179
f 179 33 32
f 179 32 31
f 30 180 31
f 31 180 181
f 31 181 179
f 36 175 37
f 37 175 182
f 37 182 38
f 38 182 183
f 38 183 39
f 39 183 184
f 39 184 40
f 40 184 185
f 40 185 41
f 41 185 186
f 41 186 42
f 42 186 187
f 42 187 43
f 43 187 188
f 43 188 19
f 19 188 189
f 19 189 18
f 18 189 190
f 18 190 17
f 17 190 191
f 17 191 16
f 16 191 192
f 16 192 20
f 20 192 193
f 20 193 21
f 21 193 194
f 21 194 22
f 22 194 195
f 22 195 23
f 23 195 196
f 23 196 24
f 24 196 197
f 24 197 25
f 25 197 198
f 25 198 26
f 26 198 199
f 26 199 27
f 27 199 200
f 27 200 28
f 28 200 201
f 28 201 29
f 29 201 202
f 29 202 30
f 30 202 203
f 30 203 180
f 204 205 206
f 204 206 207
f 207 206 208
f 207 208 209
f 209 208 210
f 209 210 211
f 211 210 212
f 211 212 213
f 213 212 214
f 213 214 215
f 215 214 216
f 215 216 217
f 217 216 218
f 217 218 219
f 219 218 220
f 219 220 221
f 205 204 222
f 222 204 223
f 222 223 224
f 221 220 225
f 225 220 226
f 225 226 227
f 227 226 228
f 227 228 229
f 229 228 230
f 229 230 231
f 231 230 232
f 231 232 233
f 233 232 234
f 233 234 235
f 235 234 236
f 235 236 237
f 237 236 238
f 237 238 239
f 239 238 240
f 239 240 241
f 241 240 242
f 241 242 243
f 243 242 244
f 243 244 245
f 245 244 246
f 245 246 247
f 247 246 248
f 247 248 249
f 249 248 250
f 249 250 251
f 251 250 252
f 251 252 253
f 253 252 254
f 253 254 255
f 255 254 256
f 255 256 257
f 257 256 258
f 257 258 224
f 224 258 259
f 224 259 222
f 260 261 262
f 260 262 263
f 263 262 264
f 263 264 265
f 265 264 266
f 265 266 267
f 260 268 261
f 261 268 269
f 270 267 271
f 271 267 266
f 45 266 46
f 46 266 264
f 46 264 48
f 48 264 50
f 50 264 262
f 50 262 51
f 51 262 53
f 53 262 261
f 53 261 54
f 272 273 274
f 274 273 275
f 274 275 271
f 271 275 270
f 273 272 276
f 276 272 277
f 278 279 280
f 280 279 281
f 280 281 277
f 277 281 276
f 279 278 282
f 282 278 283
f 284 285 286
f 286 285 287
f 286 287 283
f 283 287 282
f 285 284 288
f 288 284 289
f 290 291 292
f 292 291 293
f 292 293 289
f 289 293 288
f 58 291 56
f 56 291 290
f 294 64 295
f 295 64 63
f 296 63 65
f 296 65 297
f 297 65 66
f 297 66 298
f 66 61 298
f 298 61 60
f 298 60 299
f 60 57 299
f 299 57 56
f 299 56 300
f 301 302 303
f 303 302 304
f 303 304 305
f 305 304 306
f 305 306 307
f 307 306 308
f 307 308 309
f 309 308 310
f 309 310 268
f 268 310 311
f 268 311 269
f 312 269 313
f 313 269 311
f 313 311 314
f 311 310 314
f 314 310 308
f 314 308 315
f 308 306 315
f 315 306 304
f 315 304 316
f 316 304 302
f 316 302 301
f 317 318 228
f 228 226 317
f 317 226 220
f 317 220 319
f 220 218 319
f 319 218 216
f 319 216 320
f 216 214 320
f 320 214 212
f 320 212 321
f 212 210 321
f 321 210 208
f 321 208 322
f 208 206 322
f 322 206 205
f 322 205 323
f 205 222 323
f 323 222 259
f 323 259 324
f 324 259 258
f 324 258 325
f 258 256 325
f 325 256 254
f 325 254 326
f 254 252 326
f 326 252 250
f 326 250 327
f 250 248 327
f 327 248 246
f 327 246 328
f 328 246 244
f 244 242 328
f 328 242 240
f 328 240 329
f 240 238 329
f 329 238 236
f 329 236 330
f 330 236 234
f 330 234 331
f 331 234 232
f 331 232 318
f 318 232 230
f 318 230 228
f 332 333 82
f 82 84 332
f 332 84 86
f 332 86 334
f 86 88 334
f 334 88 90
f 334 90 335
f 335 90 118
f 118 116 335
f 335 116 114
f 335 114 336
f 114 112 336
f 336 112 110
f 336 110 337
f 337 110 108
f 337 108 338
f 338 108 106
f 338 106 339
f 106 104 339
f 339 104 102
f 339 102 340
f 102 100 340
f 340 100 98
f 340 98 341
f 92 342 94
f 94 342 341
f 94 341 96
f 96 341 98
f 92 91 342
f 342 91 69
f 342 69 343
f 69 70 343
f 343 70 72
f 343 72 344
f 72 74 344
f 344 74 76
f 344 76 345
f 345 76 78
f 345 78 333
f 333 78 80
f 333 80 82
f 346 347 348
f 348 347 349
f 347 350 349
f 349 350 351
f 349 351 352
f 353 354 355
f 355 354 352
f 355 352 356
f 356 352 351
f 357 358 109
f 109 111 357
f 357 111 113
f 357 113 359
f 119 360 117
f 117 360 359
f 117 359 115
f 115 359 113
f 119 120 360
f 360 120 89
f 360 89 361
f 89 87 361
f 361 87 85
f 361 85 362
f 85 83 362
f 362 83 81
f 362 81 363
f 363 81 79
f 363 79 364
f 79 77 364
f 364 77 75
f 364 75 365
f 75 73 365
f 365 73 71
f 365 71 366
f 71 68 366
f 366 68 67
f 366 67 367
f 367 67 93
f 93 95 367
f 367 95 97
f 367 97 368
f 97 99 368
f 368 99 101
f 368 101 369
f 369 101 103
f 369 103 370
f 370 103 105
f 370 105 358
f 358 105 107
f 358 107 109
f 371 372 373
f 373 372 374
f 373 374 375
f 375 374 376
f 375 376 377
f 377 376 378
f 348 349 378
f 378 349 352
f 378 352 354
f 379 380 381
f 381 380 382
f 372 383 384
f 383 385 386
f 376 374 378
f 378 374 372
f 378 372 348
f 348 372 384
f 379 384 380
f 380 384 383
f 380 383 387
f 387 383 386
f 388 384 389
f 389 384 379
f 389 379 390
f 390 379 381
f 390 381 391
f 391 381 382
f 392 380 393
f 393 380 387
f 393 387 394
f 394 387 386
f 385 395 386
f 386 395 396
f 386 396 394
f 383 397 385
f 385 397 398
f 385 398 395
f 399 400 129
f 129 127 399
f 399 127 125
f 399 125 401
f 125 122 401
f 401 122 121
f 401 121 402
f 402 121 147
f 147 149 402
f 402 149 151
f 402 151 403
f 151 153 403
f 403 153 155
f 403 155 404
f 404 155 157
f 404 157 405
f 405 157 159
f 405 159 406
f 159 161 406
f 406 161 163
f 406 163 407
f 163 165 407
f 407 165 167
f 407 167 408
f 173 409 171
f 171 409 408
f 171 408 169
f 169 408 167
f 173 174 409
f 409 174 143
f 409 143 410
f 143 141 410
f 410 141 139
f 410 139 411
f 139 137 411
f 411 137 135
f 411 135 412
f 412 135 133
f 412 133 400
f 400 133 131
f 400 131 129
f 413 414 156
f 156 154 413
f 413 154 152
f 413 152 415
f 146 416 148
f 148 416 415
f 148 415 150
f 150 415 152
f 146 145 416
f 416 145 123
f 416 123 417
f 123 124 417
f 417 124 126
f 417 126 418
f 126 128 418
f 418 128 130
f 418 130 419
f 419 130 132
f 419 132 420
f 132 134 420
f 420 134 136
f 420 136 421
f 136 138 421
f 421 138 140
f 421 140 422
f 140 142 422
f 422 142 144
f 422 144 423
f 423 144 172
f 172 170 423
f 423 170 168
f 423 168 424
f 168 166 424
f 424 166 164
f 424 164 425
f 425 164 162
f 425 162 426
f 426 162 160
f 426 160 414
f 414 160 158
f 414 158 156
f 427 428 429
f 429 428 430
f 429 430 431
f 431 430 432
f 433 434 435
f 433 435 436
f 436 435 437
f 436 437 438
f 439 440 176
f 176 178 439
f 439 178 177
f 439 177 441
f 180 442 181
f 181 442 441
f 181 441 179
f 179 441 177
f 180 203 442
f 442 203 202
f 442 202 443
f 202 201 443
f 443 201 200
f 443 200 444
f 200 199 444
f 444 199 198
f 444 198 445
f 198 197 445
f 445 197 196
f 445 196 446
f 446 196 195
f 446 195 447
f 195 194 447
f 447 194 193
f 447 193 448
f 193 192 448
f 448 192 191
f 448 191 449
f 191 190 449
f 449 190 189
f 449 189 450
f 450 189 188
f 188 187 450
f 450 187 186
f 450 186 451
f 186 185 451
f 451 185 184
f 451 184 452
f 452 184 183
f 452 183 453
f 453 183 182
f 453 182 440
f 440 182 175
f 440 175 176
f 454 455 456
f 457 294 295
f 295 458 457
f 457 458 459
f 457 459 460
f 460 459 461
f 460 461 462
f 462 461 463
f 462 463 454
f 454 463 464
f 454 464 455
f 456 455 465
f 465 455 466
f 455 464 466
f 466 464 463
f 466 463 467
f 463 461 467
f 467 461 459
f 467 459 468
f 468 459 458
f 468 458 469
f 469 458 295
f 470 471 204
f 204 207 470
f 470 207 209
f 470 209 472
f 209 211 472
f 472 211 213
f 472 213 473
f 213 215 473
f 473 215 217
f 473 217 474
f 217 219 474
f 474 219 221
f 474 221 475
f 221 225 475
f 475 225 227
f 475 227 476
f 227 229 476
f 476 229 231
f 476 231 477
f 477 231 233
f 477 233 478
f 233 235 478
f 478 235 237
f 478 237 479
f 237 239 479
f 479 239 241
f 479 241 480
f 241 243 480
f 480 243 245
f 480 245 481
f 481 245 247
f 247 249 481
f 481 249 251
f 481 251 482
f 251 253 482
f 482 253 255
f 482 255 483
f 483 255 257
f 483 257 484
f 484 257 224
f 484 224 471
f 471 224 223
f 471 223 204
f 485 293 291
f 270 275 486
f 486 275 273
f 486 273 487
f 487 273 276
f 487 276 488
f 488 276 281
f 488 281 489
f 489 281 279
f 489 279 490
f 490 279 282
f 490 282 491
f 491 282 287
f 491 287 492
f 492 287 285
f 492 285 485
f 485 285 288
f 485 288 293
f 64 294 493
f 493 294 457
f 493 457 460
f 307 309 494
f 494 309 268
f 494 268 260
f 486 495 270
f 270 495 494
f 270 494 267
f 267 494 260
f 267 260 265
f 265 260 263
f 59 62 58
f 58 62 64
f 58 64 291
f 291 64 493
f 291 493 485
f 485 493 496
f 497 498 499
f 497 499 500
f 500 499 501
f 500 501 502
f 502 501 503
f 502 503 504
f 504 503 505
f 504 505 506
f 506 505 507
f 506 507 508
f 508 507 509
f 508 509 510
f 510 509 511
f 510 511 512
f 512 511 513
f 512 513 514
f 514 513 515
f 514 515 516
f 516 515 517
f 516 517 518
f 519 520 521
f 519 521 522
f 522 521 523
f 522 523 524
f 524 523 525
f 524 525 526
f 526 525 527
f 526 527 528
f 528 527 529
f 528 529 530
f 530 529 531
f 530 531 532
f 532 531 533
f 532 533 534
f 534 533 535
f 534 535 536
f 536 535 537
f 536 537 538
f 538 537 539
f 538 539 540
f 348 384 346
f 346 384 388
f 541 542 543
f 541 543 544
f 544 543 545
f 544 545 546
f 546 545 547
f 546 547 548
f 548 547 549
f 548 549 550
f 550 549 551
f 550 551 552
f 552 551 553
f 552 553 554
f 554 553 555
f 554 555 556
f 556 555 557
f 556 557 558
f 558 557 559
f 558 559 560
f 560 559 561
f 560 561 562
f 563 564 565
f 563 565 566
f 566 565 567
f 566 567 568
f 568 567 569
f 568 569 570
f 570 569 571
f 570 571 572
f 572 571 573
f 572 573 574
f 574 573 575
f 574 575 576
f 576 575 577
f 576 577 578
f 578 577 579
f 578 579 580
f 580 579 581
f 580 581 582
f 582 581 583
f 582 583 584
f 54 261 312
f 312 261 269
f 585 271 45
f 45 271 266
f 586 272 587
f 587 272 274
f 587 274 585
f 585 274 271
f 586 588 272
f 272 588 277
f 589 278 590
f 590 278 280
f 590 280 588
f 588 280 277
f 589 591 278
f 278 591 283
f 283 591 286
f 286 591 592
f 286 592 284
f 284 592 593
f 593 594 284
f 284 594 289
f 289 594 292
f 292 594 595
f 292 595 290
f 290 595 596
f 300 56 596
f 596 56 290
f 469 295 296
f 296 295 63
f 597 296 297
f 597 297 598
f 598 297 298
f 598 298 599
f 599 298 299
f 599 299 600
f 600 299 300
f 600 300 601
f 602 603 604
f 602 604 605
f 605 604 606
f 605 606 607
f 607 606 608
f 607 608 609
f 609 608 610
f 609 610 611
f 611 610 612
f 611 612 613
f 613 612 614
f 613 614 615
f 615 614 616
f 615 616 617
f 617 616 618
f 617 618 619
f 619 618 620
f 619 620 621
f 621 620 622
f 621 622 623
f 623 622 624
f 623 624 625
f 626 627 628
f 626 628 629
f 629 628 630
f 629 630 631
f 631 630 632
f 631 632 633
f 633 632 634
f 633 634 635
f 635 634 636
f 635 636 637
f 637 636 638
f 637 638 639
f 639 638 640
f 639 640 641
f 641 640 642
f 641 642 643
f 643 642 644
f 643 644 645
f 645 644 646
f 645 646 647
f 647 646 648
f 647 648 649
f 492 485 650
f 650 485 651
f 652 490 653
f 653 490 491
f 653 491 650
f 650 491 492
f 489 490 654
f 654 490 652
f 655 487 656
f 656 487 488
f 656 488 654
f 654 488 489
f 486 487 657
f 657 487 655
f 658 494 659
f 659 494 495
f 659 495 657
f 657 495 486
f 327 328 301
f 301 328 316
f 324 660 323
f 323 660 661
f 323 661 322
f 322 661 662
f 322 662 321
f 321 662 663
f 321 663 320
f 320 663 664
f 320 664 319
f 328 329 316
f 316 329 330
f 316 330 665
f 665 330 331
f 665 331 666
f 666 331 318
f 666 318 667
f 667 318 317
f 667 317 668
f 668 317 319
f 668 319 669
f 669 319 664
f 327 301 326
f 326 301 670
f 326 670 325
f 325 670 671
f 325 671 324
f 324 671 672
f 324 672 660
f 494 658 307
f 307 658 673
f 307 673 305
f 305 673 670
f 305 670 303
f 303 670 301
f 674 344 345
f 674 345 675
f 674 676 344
f 344 676 677
f 344 677 343
f 343 677 541
f 343 541 342
f 342 541 544
f 342 544 341
f 341 544 546
f 341 546 340
f 345 333 675
f 675 333 332
f 675 332 562
f 562 332 334
f 562 334 560
f 560 334 335
f 560 335 558
f 558 335 336
f 558 336 556
f 556 336 337
f 556 337 554
f 554 337 338
f 554 338 552
f 552 338 339
f 552 339 550
f 550 339 340
f 550 340 548
f 548 340 546
f 678 679 680
f 680 679 681
f 680 681 583
f 583 681 584
f 542 541 682
f 682 541 677
f 682 677 683
f 683 677 676
f 354 582 584
f 377 378 679
f 679 378 354
f 679 354 681
f 681 354 584
f 353 563 360
f 368 578 367
f 367 578 580
f 367 580 366
f 366 580 582
f 366 582 365
f 365 582 354
f 365 354 364
f 360 563 359
f 359 563 566
f 359 566 357
f 357 566 568
f 357 568 358
f 358 568 570
f 358 570 370
f 370 570 572
f 370 572 369
f 369 572 574
f 369 574 368
f 368 574 576
f 368 576 578
f 360 361 353
f 353 361 362
f 353 362 354
f 354 362 363
f 354 363 364
f 383 372 397
f 397 372 371
f 409 522 408
f 408 522 524
f 408 524 407
f 380 392 382
f 382 392 684
f 382 684 685
f 409 410 522
f 522 410 382
f 522 382 519
f 519 382 685
f 410 411 382
f 382 411 412
f 382 412 391
f 412 400 391
f 391 400 399
f 391 399 540
f 540 399 401
f 540 401 538
f 538 401 402
f 538 402 536
f 536 402 403
f 536 403 534
f 534 403 404
f 534 404 532
f 532 404 405
f 532 405 530
f 530 405 406
f 530 406 528
f 528 406 407
f 528 407 526
f 526 407 524
f 520 519 686
f 686 519 685
f 686 685 687
f 687 685 684
f 688 689 690
f 690 689 691
f 690 691 517
f 517 691 518
f 689 431 420
f 432 417 418
f 432 418 431
f 431 418 419
f 431 419 420
f 424 512 423
f 423 512 514
f 423 514 422
f 422 514 516
f 422 516 421
f 421 516 518
f 421 518 420
f 420 518 691
f 420 691 689
f 417 432 416
f 416 432 497
f 416 497 415
f 415 497 500
f 415 500 413
f 413 500 502
f 413 502 414
f 414 502 504
f 414 504 426
f 426 504 506
f 426 506 425
f 425 506 508
f 425 508 424
f 424 508 510
f 424 510 512
f 433 428 434
f 434 428 427
f 440 439 438
f 438 439 441
f 438 441 625
f 625 441 442
f 625 442 623
f 623 442 443
f 449 609 448
f 448 609 611
f 448 611 447
f 447 611 613
f 447 613 446
f 446 613 615
f 446 615 445
f 445 615 617
f 445 617 444
f 444 617 619
f 444 619 443
f 443 619 621
f 443 621 623
f 452 692 451
f 451 692 602
f 451 602 450
f 450 602 605
f 450 605 449
f 449 605 607
f 449 607 609
f 440 438 453
f 453 438 437
f 453 437 452
f 452 437 693
f 452 693 692
f 694 695 696
f 696 695 697
f 696 697 648
f 648 697 649
f 603 602 698
f 698 602 692
f 698 692 699
f 699 692 693
f 480 481 695
f 470 472 637
f 637 472 635
f 635 472 473
f 635 473 633
f 633 473 474
f 633 474 631
f 631 474 475
f 631 475 629
f 629 475 476
f 629 476 626
f 626 476 477
f 626 477 465
f 465 477 478
f 465 478 456
f 456 478 479
f 456 479 480
f 454 456 462
f 462 456 480
f 462 480 460
f 460 480 695
f 460 695 493
f 493 695 700
f 637 639 470
f 470 639 641
f 470 641 471
f 471 641 643
f 471 643 484
f 484 643 645
f 484 645 483
f 483 645 647
f 483 647 482
f 482 647 649
f 482 649 481
f 481 649 697
f 481 697 695
f 651 485 701
f 701 485 496
f 701 496 700
f 700 496 493
f 702 703 704
f 704 703 705
f 704 705 675
f 675 705 674
f 624 706 625
f 625 706 438
f 707 433 436
f 707 436 708
f 708 436 438
f 708 438 706
f 707 709 433
f 433 709 428
f 428 709 430
f 430 709 710
f 430 710 432
f 432 710 711
f 711 498 432
f 432 498 497
f 520 517 515
f 520 515 521
f 521 515 513
f 521 513 523
f 523 513 511
f 523 511 525
f 525 511 509
f 525 509 527
f 527 509 507
f 527 507 529
f 529 507 505
f 529 505 531
f 531 505 503
f 531 503 533
f 533 503 501
f 533 501 535
f 535 501 499
f 535 499 537
f 537 499 498
f 537 498 539
f 539 712 540
f 540 712 391
f 391 712 390
f 390 712 713
f 390 713 389
f 389 713 714
f 389 714 388
f 388 714 715
f 715 716 388
f 388 716 346
f 717 718 353
f 353 355 717
f 717 355 356
f 717 356 719
f 346 716 347
f 347 716 720
f 347 720 350
f 350 720 719
f 350 719 351
f 351 719 356
f 718 564 353
f 353 564 563
f 542 583 581
f 542 581 543
f 543 581 579
f 543 579 545
f 545 579 577
f 545 577 547
f 547 577 575
f 547 575 549
f 549 575 573
f 549 573 551
f 551 573 571
f 551 571 553
f 553 571 569
f 553 569 555
f 555 569 567
f 555 567 557
f 557 567 565
f 557 565 559
f 559 565 564
f 559 564 561
f 561 721 562
f 562 721 675
f 675 721 704
f 704 721 722
f 704 722 702
f 702 722 723
f 724 725 723
f 723 725 702
f 316 665 726
f 726 665 727
f 316 726 315
f 315 726 728
f 315 728 314
f 314 728 729
f 314 729 313
f 313 729 730
f 313 730 312
f 312 730 731
f 312 731 54
f 54 731 55
f 45 44 585
f 585 44 732
f 585 732 587
f 587 732 733
f 587 733 586
f 586 733 734
f 588 586 735
f 735 586 734
f 588 735 590
f 590 735 736
f 590 736 589
f 589 736 737
f 591 589 738
f 738 589 737
f 591 738 592
f 592 738 739
f 592 739 593
f 593 739 740
f 594 593 741
f 741 593 740
f 594 741 595
f 595 741 742
f 595 742 596
f 596 742 743
f 601 300 743
f 743 300 596
f 744 469 597
f 597 469 296
f 469 744 468
f 468 744 745
f 468 745 467
f 467 745 746
f 467 746 466
f 466 746 747
f 466 747 465
f 465 747 748
f 748 627 465
f 465 627 626
f 627 624 622
f 627 622 628
f 628 622 620
f 628 620 630
f 630 620 618
f 630 618 632
f 632 618 616
f 632 616 634
f 634 616 614
f 634 614 636
f 636 614 612
f 636 612 638
f 638 612 610
f 638 610 640
f 640 610 608
f 640 608 642
f 642 608 606
f 642 606 644
f 644 606 604
f 644 604 646
f 646 604 603
f 646 603 648
f 671 749 750
f 671 750 672
f 672 750 751
f 672 751 660
f 660 751 752
f 660 752 661
f 661 752 753
f 661 753 662
f 662 753 754
f 662 754 663
f 663 754 755
f 663 755 664
f 664 755 756
f 664 756 669
f 669 756 757
f 669 757 668
f 668 757 758
f 668 758 667
f 667 758 759
f 667 759 666
f 666 759 727
f 666 727 665
f 749 671 760
f 760 671 670
f 760 670 761
f 761 670 673
f 762 763 651
f 651 763 650
f 650 763 653
f 653 763 764
f 653 764 652
f 652 764 765
f 765 766 652
f 652 766 654
f 654 766 656
f 656 766 767
f 656 767 655
f 655 767 768
f 768 769 655
f 655 769 657
f 657 769 659
f 659 769 770
f 659 770 658
f 658 770 771
f 771 761 658
f 658 761 673
f 772 773 703
f 703 773 774
f 703 774 705
f 705 774 775
f 705 775 674
f 674 775 776
f 676 674 683
f 683 674 776
f 683 678 682
f 682 678 680
f 682 680 542
f 542 680 583
f 377 679 777
f 777 679 678
f 377 777 375
f 375 777 778
f 375 778 373
f 373 778 779
f 373 779 371
f 371 779 780
f 397 371 781
f 781 371 780
f 782 783 392
f 392 393 782
f 782 393 394
f 782 394 784
f 784 394 396
f 397 781 398
f 398 781 784
f 398 784 395
f 395 784 396
f 684 392 687
f 687 392 783
f 687 688 686
f 686 688 690
f 686 690 520
f 520 690 517
f 431 689 785
f 785 689 688
f 431 785 429
f 429 785 786
f 429 786 427
f 427 786 787
f 434 427 788
f 788 427 787
f 789 437 435
f 789 435 790
f 790 435 434
f 790 434 788
f 789 699 437
f 437 699 693
f 648 603 696
f 696 603 698
f 696 698 694
f 694 698 699
f 694 791 695
f 695 791 700
f 700 791 701
f 701 791 792
f 701 792 651
f 651 792 762
f 773 772 793
f 773 793 794
f 794 793 795
f 794 795 796
f 797 798 799
f 797 799 800
f 800 799 725
f 800 725 724
f 703 702 772
f 772 702 725
f 539 498 712
f 712 498 711
f 730 729 797
f 797 729 728
f 797 728 801
f 801 728 726
f 801 726 727
f 715 714 711
f 711 714 713
f 711 713 712
f 747 706 748
f 748 706 624
f 748 624 627
f 601 743 708
f 708 743 707
f 561 564 721
f 721 564 718
f 721 718 717
f 730 797 731
f 731 797 800
f 731 800 724
f 747 746 706
f 706 746 745
f 706 745 708
f 708 745 744
f 708 744 601
f 734 733 724
f 724 733 732
f 724 732 731
f 731 732 44
f 731 44 55
f 737 736 721
f 734 724 735
f 735 724 723
f 735 723 736
f 736 723 802
f 736 802 721
f 599 600 598
f 598 600 601
f 598 601 597
f 597 601 744
f 47 49 44
f 44 49 52
f 44 52 55
f 739 710 709
f 743 742 707
f 707 742 741
f 707 741 709
f 709 741 740
f 709 740 739
f 717 719 721
f 721 719 720
f 721 720 737
f 737 720 716
f 737 716 738
f 738 716 715
f 738 715 739
f 739 715 711
f 739 711 710
f 801 727 759
f 801 759 803
f 803 759 758
f 803 758 804
f 804 758 757
f 804 757 805
f 805 757 756
f 805 756 806
f 806 756 755
f 806 755 807
f 807 755 754
f 807 754 808
f 808 754 753
f 808 753 809
f 809 753 752
f 809 752 810
f 810 752 751
f 810 751 811
f 811 751 750
f 811 750 812
f 812 750 749
f 812 749 813
f 813 749 814
f 814 749 760
f 814 760 815
f 815 760 761
f 774 773 778
f 791 694 699
f 788 787 782
f 782 787 816
f 782 816 783
f 783 816 785
f 783 785 687
f 687 785 688
f 782 784 765
f 765 784 781
f 765 781 766
f 815 761 796
f 796 761 771
f 796 771 794
f 794 771 770
f 794 770 773
f 678 683 777
f 777 683 776
f 777 776 778
f 778 776 775
f 778 775 774
f 765 764 782
f 782 764 763
f 782 763 788
f 763 762 788
f 788 762 792
f 788 792 790
f 790 792 791
f 790 791 789
f 789 791 699
f 770 769 773
f 773 769 768
f 773 768 778
f 778 768 767
f 778 767 779
f 779 767 766
f 779 766 780
f 780 766 781
f 772 725 799
f 772 799 793
f 793 799 798
f 793 798 795
f 801 817 797
f 797 817 798
f 817 801 803
f 817 803 818
f 818 803 804
f 818 804 819
f 819 804 805
f 819 805 820
f 820 805 806
f 820 806 821
f 821 806 807
f 821 807 822
f 822 807 808
f 822 808 823
f 823 808 809
f 823 809 824
f 824 809 810
f 824 810 825
f 825 810 811
f 825 811 826
f 826 811 812
f 826 812 827
f 827 812 813
f 827 813 828
f 815 829 814
f 814 829 830
f 814 830 813
f 813 830 828
f 796 795 815
f 815 795 829
f 831 832 830
f 833 822 834
f 834 822 823
f 834 823 835
f 835 823 824
f 835 824 836
f 836 824 825
f 836 825 837
f 837 825 826
f 837 826 838
f 838 826 827
f 838 827 832
f 832 827 828
f 832 828 830
f 839 798 840
f 840 798 817
f 840 817 841
f 841 817 818
f 841 818 842
f 842 818 819
f 842 819 843
f 843 819 820
f 843 820 833
f 833 820 821
f 833 821 822
f 839 844 798
f 798 844 845
f 798 845 795
f 795 845 831
f 795 831 829
f 829 831 830
f 842 843 846
f 846 847 842
f 842 847 848
f 842 848 841
f 848 849 841
f 841 849 850
f 841 850 840
f 840 850 851
f 851 852 840
f 840 852 853
f 840 853 839
f 853 854 839
f 839 854 855
f 839 855 844
f 855 856 844
f 844 856 857
f 844 857 845
f 845 857 858
f 845 858 831
f 858 859 831
f 831 859 860
f 831 860 832
f 860 861 832
f 832 861 862
f 832 862 838
f 862 863 838
f 838 863 864
f 838 864 837
f 864 865 837
f 837 865 866
f 837 866 836
f 866 867 836
f 836 867 868
f 836 868 835
f 868 869 835
f 835 869 870
f 835 870 834
f 870 871 834
f 834 871 872
f 834 872 833
f 833 872 873
f 833 873 843
f 843 873 874
f 843 874 846
f 875 876 851
f 851 850 875
f 875 850 849
f 875 849 877
f 849 848 877
f 877 848 847
f 877 847 878
f 878 847 846
f 846 874 878
f 878 874 873
f 878 873 879
f 873 872 879
f 879 872 871
f 879 871 880
f 871 870 880
f 880 870 869
f 880 869 881
f 869 868 881
f 881 868 867
f 881 867 882
f 867 866 882
f 882 866 865
f 882 865 883
f 865 864 883
f 883 864 863
f 883 863 884
f 860 885 861
f 861 885 884
f 861 884 862
f 862 884 863
f 860 859 885
f 885 859 858
f 885 858 886
f 858 857 886
f 886 857 856
f 886 856 887
f 887 856 855
f 887 855 888
f 855 854 888
f 888 854 853
f 888 853 876
f 876 853 852
f 876 852 851
f 889 890 891
f 889 891 892
f 893 894 891
f 891 894 895
f 891 895 892
f 896 897 891
f 891 897 898
f 891 898 893
f 899 900 891
f 891 900 901
f 891 901 896
f 890 902 891
f 891 902 903
f 891 903 899
f 876 892 888
f 888 892 895
f 888 895 887
f 887 895 894
f 887 894 886
f 886 894 893
f 886 893 885
f 885 893 898
f 885 898 884
f 884 898 897
f 884 897 883
f 883 897 896
f 883 896 882
f 882 896 901
f 882 901 881
f 881 901 900
f 881 900 880
f 880 900 899
f 880 899 879
f 879 899 903
f 879 903 878
f 878 903 902
f 878 902 877
f 877 902 890
f 877 890 875
f 875 890 889
f 875 889 876
f 876 889 892

